<svg width="16" height="4" viewBox="0 0 16 4" fill="none" xmlns="http://www.w3.org/2000/svg">
<path d="M3.875 2C3.875 2.49728 3.67746 2.97419 3.32583 3.32583C2.97419 3.67746 2.49728 3.875 2 3.875C1.50272 3.875 1.02581 3.67746 0.674175 3.32583C0.322544 2.97419 0.125 2.49728 0.125 2C0.125 1.50272 0.322544 1.02581 0.674175 0.674175C1.02581 0.322544 1.50272 0.125 2 0.125C2.49728 0.125 2.97419 0.322544 3.32583 0.674175C3.67746 1.02581 3.875 1.50272 3.875 2ZM9.875 2C9.875 2.49728 9.67746 2.97419 9.32582 3.32583C8.97419 3.67746 8.49728 3.875 8 3.875C7.50272 3.875 7.02581 3.67746 6.67417 3.32583C6.32254 2.97419 6.125 2.49728 6.125 2C6.125 1.50272 6.32254 1.02581 6.67417 0.674175C7.02581 0.322544 7.50272 0.125 8 0.125C8.49728 0.125 8.97419 0.322544 9.32582 0.674175C9.67746 1.02581 9.875 1.50272 9.875 2ZM14 3.875C14.4973 3.875 14.9742 3.67746 15.3258 3.32583C15.6775 2.97419 15.875 2.49728 15.875 2C15.875 1.50272 15.6775 1.02581 15.3258 0.674175C14.9742 0.322544 14.4973 0.125 14 0.125C13.5027 0.125 13.0258 0.322544 12.6742 0.674175C12.3225 1.02581 12.125 1.50272 12.125 2C12.125 2.49728 12.3225 2.97419 12.6742 3.32583C13.0258 3.67746 13.5027 3.875 14 3.875Z" fill="#333333"/>
</svg>
