<svg width="24" height="24" viewBox="0 0 24 24" fill="none" xmlns="http://www.w3.org/2000/svg">
<path d="M4.616 13.7696C4.15533 13.7696 3.771 13.6152 3.463 13.3066C3.155 12.9979 3.00067 12.6136 3 12.1536V4.38355C3 3.92355 3.15433 3.53955 3.463 3.23155C3.77167 2.92355 4.15567 2.76922 4.615 2.76855H19.385C19.845 2.76855 20.229 2.92289 20.537 3.23155C20.845 3.54022 20.9993 3.92422 21 4.38355V12.1536C21 12.6136 20.8457 12.9979 20.537 13.3066C20.2283 13.6152 19.844 13.7692 19.384 13.7686H16.314C16.3493 13.6019 16.371 13.4352 16.379 13.2686C16.3863 13.1019 16.3863 12.9352 16.379 12.7686C16.3097 11.6172 15.8553 10.6436 15.016 9.84755C14.1767 9.05155 13.1713 8.65355 12 8.65355C10.8287 8.65355 9.82333 9.05155 8.984 9.84755C8.14467 10.6436 7.69 11.6172 7.62 12.7686C7.61267 12.9352 7.61267 13.1019 7.62 13.2686C7.628 13.4352 7.65 13.6019 7.686 13.7686L4.616 13.7696ZM7 8.47955L8.635 6.86555L7 5.24955L5.384 6.86555L7 8.47955ZM16.5 7.26955C16.776 7.26955 17.0117 7.17155 17.207 6.97555C17.4023 6.77955 17.5 6.54389 17.5 6.26855C17.5 5.99322 17.4023 5.75789 17.207 5.56255C17.0117 5.36722 16.776 5.26922 16.5 5.26855C16.224 5.26789 15.9883 5.36589 15.793 5.56255C15.5977 5.75922 15.5 5.99455 15.5 6.26855C15.5 6.54255 15.5977 6.77822 15.793 6.97555C15.9883 7.17289 16.224 7.27155 16.5 7.26955ZM6 21.2306V19.8226C6 19.4319 6.108 19.0666 6.324 18.7266C6.54 18.3866 6.83133 18.1366 7.198 17.9766C7.96333 17.6319 8.746 17.3699 9.546 17.1906C10.346 17.0112 11.164 16.9219 12 16.9226C12.836 16.9232 13.654 17.0126 14.454 17.1906C15.254 17.3686 16.0367 17.6306 16.802 17.9766C17.1687 18.1366 17.46 18.3866 17.676 18.7266C17.892 19.0666 18 19.4319 18 19.8226V21.2306H6ZM12 15.5376C11.3027 15.5376 10.7117 15.2952 10.227 14.8106C9.74233 14.3266 9.5 13.7356 9.5 13.0376C9.5 12.3396 9.74233 11.7486 10.227 11.2646C10.7117 10.7806 11.3027 10.5382 12 10.5376C12.6973 10.5369 13.2883 10.7792 13.773 11.2646C14.2577 11.7499 14.5 12.3409 14.5 13.0376C14.5 13.7342 14.2577 14.3252 13.773 14.8106C13.2883 15.2959 12.6973 15.5382 12 15.5376Z" fill="#FEC53D"/>
</svg>
