<svg width="12" height="16" viewBox="0 0 12 16" fill="none" xmlns="http://www.w3.org/2000/svg">
<path d="M10.3201 8.00055C9.76074 7.5317 9.04968 7.28283 8.32006 7.30055H3.63006C3.41623 7.30595 3.2035 7.26814 3.00461 7.1894C2.80573 7.11065 2.62478 6.99259 2.47259 6.84227C2.32041 6.69195 2.20012 6.51247 2.11892 6.31458C2.03773 6.11668 1.9973 5.90443 2.00006 5.69055C1.99485 5.6073 1.99485 5.5238 2.00006 5.44055C2.06312 5.05835 2.26353 4.71232 2.56365 4.46743C2.86378 4.22254 3.24299 4.09564 3.63006 4.11055H8.25006C8.62692 4.11021 8.99165 4.24375 9.27921 4.48735C9.56676 4.73094 9.75844 5.06876 9.82006 5.44055H11.3201C11.2573 4.66948 10.9066 3.95028 10.3378 3.42594C9.76898 2.90159 9.02368 2.61051 8.25006 2.61055H6.67006V0.310547H5.42006V2.61055H3.63006C2.85644 2.61051 2.11114 2.90159 1.54233 3.42594C0.973517 3.95028 0.622856 4.66948 0.560062 5.44055C0.554849 5.5238 0.554849 5.6073 0.560062 5.69055C0.560062 6.09371 0.63947 6.49292 0.793752 6.86539C0.948034 7.23785 1.17417 7.57629 1.45924 7.86136C2.03498 8.4371 2.81585 8.76055 3.63006 8.76055H8.37006C8.58221 8.75521 8.79327 8.79239 8.99082 8.8699C9.18837 8.94741 9.3684 9.06368 9.52031 9.21186C9.67222 9.36004 9.79293 9.53713 9.87532 9.7327C9.95772 9.92826 10.0001 10.1383 10.0001 10.3505C10.0097 10.4637 10.0097 10.5774 10.0001 10.6905C9.92066 11.0424 9.72399 11.3568 9.44233 11.5821C9.16067 11.8075 8.81076 11.9303 8.45006 11.9305H3.75006C3.38936 11.9303 3.03946 11.8075 2.7578 11.5821C2.47614 11.3568 2.27946 11.0424 2.20006 10.6905H0.690063C0.776 11.4419 1.13536 12.1354 1.69968 12.6388C2.26399 13.1423 2.99381 13.4205 3.75006 13.4205H5.42006V15.6905H6.67006V13.4205H8.37006C9.12632 13.4205 9.85613 13.1423 10.4204 12.6388C10.9848 12.1354 11.3441 11.4419 11.4301 10.6905V10.3505C11.4289 9.90138 11.3288 9.45799 11.1369 9.05185C10.9451 8.64571 10.6662 8.28678 10.3201 8.00055Z" fill="#007C0C"/>
</svg>
