<svg width="21" height="19" viewBox="0 0 21 19" fill="none" xmlns="http://www.w3.org/2000/svg">
<path d="M0 1.75C0 0.784 0.784 0 1.75 0H15.25C16.216 0 17 0.784 17 1.75V7H14C13.4696 7 12.9609 7.21071 12.5858 7.58579C12.2107 7.96086 12 8.46957 12 9V12H1.75C1.28587 12 0.840752 11.8156 0.512563 11.4874C0.184375 11.1592 0 10.7141 0 10.25V1.75ZM3 2.25C3 2.44891 2.92098 2.63968 2.78033 2.78033C2.63968 2.92098 2.44891 3 2.25 3H1.25V4.5H2.25C2.84674 4.5 3.41903 4.26295 3.84099 3.84099C4.26295 3.41903 4.5 2.84674 4.5 2.25V1.25H3V2.25ZM8.5 8.5C9.09674 8.5 9.66903 8.26295 10.091 7.84099C10.5129 7.41903 10.75 6.84674 10.75 6.25C10.75 5.65326 10.5129 5.08097 10.091 4.65901C9.66903 4.23705 9.09674 4 8.5 4C7.90326 4 7.33097 4.23705 6.90901 4.65901C6.48705 5.08097 6.25 5.65326 6.25 6.25C6.25 6.84674 6.48705 7.41903 6.90901 7.84099C7.33097 8.26295 7.90326 8.5 8.5 8.5ZM2.25 9C2.44891 9 2.63968 9.07902 2.78033 9.21967C2.92098 9.36032 3 9.55109 3 9.75V10.75H4.5V9.75C4.5 9.15326 4.26295 8.58097 3.84099 8.15901C3.41903 7.73705 2.84674 7.5 2.25 7.5H1.25V9H2.25ZM14.75 3C14.5511 3 14.3603 2.92098 14.2197 2.78033C14.079 2.63968 14 2.44891 14 2.25V1.25H12.5V2.25C12.5 2.84674 12.7371 3.41903 13.159 3.84099C13.581 4.26295 14.1533 4.5 14.75 4.5H15.75V3H14.75ZM2.401 13.5H12V15H5C4.47323 15.0002 3.95571 14.8616 3.49948 14.5983C3.04324 14.335 2.66438 13.9562 2.401 13.5ZM20 5V7H18.5V2.401C18.9562 2.66438 19.335 3.04324 19.5983 3.49948C19.8616 3.95571 20.0002 4.47323 20 5ZM14.5 8C14.1022 8 13.7206 8.15804 13.4393 8.43934C13.158 8.72064 13 9.10218 13 9.5V17.5C13 17.8978 13.158 18.2794 13.4393 18.5607C13.7206 18.842 14.1022 19 14.5 19H19.5C19.8978 19 20.2794 18.842 20.5607 18.5607C20.842 18.2794 21 17.8978 21 17.5V9.5C21 9.10218 20.842 8.72064 20.5607 8.43934C20.2794 8.15804 19.8978 8 19.5 8H14.5ZM15 12.5H16C16.1326 12.5 16.2598 12.5527 16.3536 12.6464C16.4473 12.7402 16.5 12.8674 16.5 13C16.5 13.1326 16.4473 13.2598 16.3536 13.3536C16.2598 13.4473 16.1326 13.5 16 13.5H15C14.8674 13.5 14.7402 13.4473 14.6464 13.3536C14.5527 13.2598 14.5 13.1326 14.5 13C14.5 12.8674 14.5527 12.7402 14.6464 12.6464C14.7402 12.5527 14.8674 12.5 15 12.5ZM18 12.5H19C19.1326 12.5 19.2598 12.5527 19.3536 12.6464C19.4473 12.7402 19.5 12.8674 19.5 13C19.5 13.1326 19.4473 13.2598 19.3536 13.3536C19.2598 13.4473 19.1326 13.5 19 13.5H18C17.8674 13.5 17.7402 13.4473 17.6464 13.3536C17.5527 13.2598 17.5 13.1326 17.5 13C17.5 12.8674 17.5527 12.7402 17.6464 12.6464C17.7402 12.5527 17.8674 12.5 18 12.5ZM15 14.5H16C16.1326 14.5 16.2598 14.5527 16.3536 14.6464C16.4473 14.7402 16.5 14.8674 16.5 15C16.5 15.1326 16.4473 15.2598 16.3536 15.3536C16.2598 15.4473 16.1326 15.5 16 15.5H15C14.8674 15.5 14.7402 15.4473 14.6464 15.3536C14.5527 15.2598 14.5 15.1326 14.5 15C14.5 14.8674 14.5527 14.7402 14.6464 14.6464C14.7402 14.5527 14.8674 14.5 15 14.5ZM18 14.5H19C19.1326 14.5 19.2598 14.5527 19.3536 14.6464C19.4473 14.7402 19.5 14.8674 19.5 15C19.5 15.1326 19.4473 15.2598 19.3536 15.3536C19.2598 15.4473 19.1326 15.5 19 15.5H18C17.8674 15.5 17.7402 15.4473 17.6464 15.3536C17.5527 15.2598 17.5 15.1326 17.5 15C17.5 14.8674 17.5527 14.7402 17.6464 14.6464C17.7402 14.5527 17.8674 14.5 18 14.5ZM15 16.5H16C16.1326 16.5 16.2598 16.5527 16.3536 16.6464C16.4473 16.7402 16.5 16.8674 16.5 17C16.5 17.1326 16.4473 17.2598 16.3536 17.3536C16.2598 17.4473 16.1326 17.5 16 17.5H15C14.8674 17.5 14.7402 17.4473 14.6464 17.3536C14.5527 17.2598 14.5 17.1326 14.5 17C14.5 16.8674 14.5527 16.7402 14.6464 16.6464C14.7402 16.5527 14.8674 16.5 15 16.5ZM18 16.5H19C19.1326 16.5 19.2598 16.5527 19.3536 16.6464C19.4473 16.7402 19.5 16.8674 19.5 17C19.5 17.1326 19.4473 17.2598 19.3536 17.3536C19.2598 17.4473 19.1326 17.5 19 17.5H18C17.8674 17.5 17.7402 17.4473 17.6464 17.3536C17.5527 17.2598 17.5 17.1326 17.5 17C17.5 16.8674 17.5527 16.7402 17.6464 16.6464C17.7402 16.5527 17.8674 16.5 18 16.5ZM14.5 10C14.5 9.86739 14.5527 9.74021 14.6464 9.64645C14.7402 9.55268 14.8674 9.5 15 9.5H19C19.1326 9.5 19.2598 9.55268 19.3536 9.64645C19.4473 9.74021 19.5 9.86739 19.5 10V11C19.5 11.1326 19.4473 11.2598 19.3536 11.3536C19.2598 11.4473 19.1326 11.5 19 11.5H15C14.8674 11.5 14.7402 11.4473 14.6464 11.3536C14.5527 11.2598 14.5 11.1326 14.5 11V10Z" fill="#FF9500"/>
</svg>
