<svg width="24" height="24" viewBox="0 0 24 24" fill="none" xmlns="http://www.w3.org/2000/svg">
<rect x="0.3" y="0.3" width="23.4" height="23.4" rx="5.7" stroke="#A3A3A3" stroke-width="0.6"/>
<path d="M7.62427 12.1758C7.38996 11.9414 7.01006 11.9414 6.77574 12.1758C6.54143 12.4101 6.54143 12.79 6.77574 13.0243L9.77574 16.0243C10.0101 16.2586 10.39 16.2586 10.6243 16.0243L17.2243 9.42429C17.4586 9.18997 17.4586 8.81007 17.2243 8.57576C16.99 8.34145 16.6101 8.34145 16.3757 8.57576L10.2 14.7515L7.62427 12.1758Z" fill="#656565"/>
<mask id="mask0_353_148" style="mask-type:luminance" maskUnits="userSpaceOnUse" x="6" y="8" width="12" height="9">
<path d="M7.62427 12.1758C7.38996 11.9414 7.01006 11.9414 6.77574 12.1758C6.54143 12.4101 6.54143 12.79 6.77574 13.0243L9.77574 16.0243C10.0101 16.2586 10.39 16.2586 10.6243 16.0243L17.2243 9.42429C17.4586 9.18997 17.4586 8.81007 17.2243 8.57576C16.99 8.34145 16.6101 8.34145 16.3757 8.57576L10.2 14.7515L7.62427 12.1758Z" fill="white"/>
</mask>
<g mask="url(#mask0_353_148)">
</g>
</svg>
