<svg width="28" height="28" viewBox="0 0 28 28" fill="none" xmlns="http://www.w3.org/2000/svg">
<path d="M14 20C13.175 20 12.469 19.7065 11.882 19.1195C11.295 18.5325 11.001 17.826 11 17C10.999 16.174 11.293 15.468 11.882 14.882C12.471 14.296 13.177 14.002 14 14C14.823 13.998 15.5295 14.292 16.1195 14.882C16.7095 15.472 17.003 16.178 17 17C16.997 17.822 16.7035 18.5285 16.1195 19.1195C15.5355 19.7105 14.829 20.004 14 20ZM7.0625 6.5H20.9375L23.9375 0.5H4.0625L7.0625 6.5ZM8.6 27.5H19.4C21.65 27.5 23.5625 26.719 25.1375 25.157C26.7125 23.595 27.5 21.676 27.5 19.4C27.5 18.45 27.3375 17.525 27.0125 16.625C26.6875 15.725 26.225 14.9125 25.625 14.1875L21.725 9.5H6.275L2.375 14.1875C1.775 14.9125 1.3125 15.725 0.9875 16.625C0.6625 17.525 0.5 18.45 0.5 19.4C0.5 21.675 1.2815 23.594 2.8445 25.157C4.4075 26.72 6.326 27.501 8.6 27.5Z" fill="#8280FF"/>
</svg>
