<svg width="24" height="24" viewBox="0 0 24 24" fill="none" xmlns="http://www.w3.org/2000/svg">
<path d="M12.0001 1.09961C5.97986 1.09961 1.09961 5.97986 1.09961 12.0001C1.09961 18.0204 5.97986 22.9006 12.0001 22.9006C18.0204 22.9006 22.9006 18.0204 22.9006 12.0001C22.9006 5.97986 18.0204 1.09961 12.0001 1.09961ZM15.5476 5.53211C16.2474 5.53211 16.8129 6.64361 16.8129 8.01461C16.8129 9.38561 16.2451 10.5001 15.5476 10.5001C14.8479 10.5001 14.2801 9.38786 14.2801 8.01611C14.2801 6.64436 14.8486 5.53211 15.5476 5.53211ZM8.32811 5.53211C9.02711 5.53211 9.59411 6.64361 9.59411 8.01461C9.59411 9.38561 9.02786 10.5001 8.32811 10.5001C7.62836 10.5001 7.06211 9.38786 7.06211 8.01611C7.06211 6.64436 7.62911 5.53211 8.32811 5.53211ZM12.0151 19.5001C9.86111 19.5001 7.84361 18.1824 6.10661 15.8926C7.90436 17.0649 9.87161 17.7189 11.9371 17.7189C14.1294 17.7189 16.2121 16.9839 18.0984 15.6684C16.3254 18.0999 14.2434 19.5009 12.0159 19.5009L12.0151 19.5001Z" fill="#007C0C"/>
</svg>
