<svg width="24" height="24" viewBox="0 0 24 24" fill="none" xmlns="http://www.w3.org/2000/svg">
<path fill-rule="evenodd" clip-rule="evenodd" d="M20.3175 3.14976C20.4455 3.2237 20.5576 3.32212 20.6475 3.43942C20.7375 3.55671 20.8034 3.69057 20.8416 3.83336C20.8797 3.97614 20.8894 4.12504 20.87 4.27156C20.8506 4.41808 20.8025 4.55934 20.7285 4.68726L15.5205 13.6978C16.2016 14.5546 16.547 15.6302 16.4922 16.7234C16.4374 17.8165 15.986 18.8522 15.2226 19.6366C14.4592 20.4209 13.4361 20.9001 12.3448 20.9845C11.2536 21.0689 10.169 20.7527 9.29404 20.0951C8.41912 19.4374 7.81388 18.4835 7.59161 17.4117C7.36935 16.34 7.54531 15.224 8.08655 14.2727C8.62778 13.3214 9.4972 12.5999 10.532 12.2434C11.5668 11.8868 12.6961 11.9197 13.7085 12.3358L16.347 7.77276C15.3366 7.26913 14.2464 6.94481 13.125 6.81426V7.49976C13.125 7.79813 13.0065 8.08428 12.7955 8.29526C12.5845 8.50624 12.2984 8.62476 12 8.62476C11.7016 8.62476 11.4155 8.50624 11.2045 8.29526C10.9935 8.08428 10.875 7.79813 10.875 7.49976V6.81426C9.92952 6.92404 9.00522 7.17166 8.1315 7.54926L8.475 8.14326C8.54887 8.2713 8.59679 8.41264 8.61604 8.5592C8.63529 8.70576 8.62548 8.85468 8.58718 8.99745C8.54887 9.14022 8.48282 9.27404 8.3928 9.39129C8.30277 9.50853 8.19054 9.6069 8.0625 9.68076C7.93446 9.75463 7.79313 9.80256 7.64656 9.82181C7.5 9.84105 7.35109 9.83124 7.20832 9.79294C7.06555 9.75464 6.93172 9.68859 6.81448 9.59856C6.69723 9.50854 6.59887 9.3963 6.525 9.26826L6.183 8.67426C5.41894 9.24259 4.74225 9.91978 4.1745 10.6843L4.7685 11.0248C5.02709 11.1739 5.21582 11.4197 5.29318 11.7081C5.37053 11.9964 5.33018 12.3037 5.181 12.5623C5.10713 12.6903 5.00877 12.8025 4.89152 12.8926C4.77428 12.9826 4.64045 13.0486 4.49768 13.0869C4.20934 13.1643 3.90209 13.1239 3.6435 12.9748L3.0495 12.6313C2.65684 13.5403 2.40495 14.5039 2.3025 15.4888C2.27167 15.7855 2.1242 16.0579 1.89255 16.246C1.6609 16.434 1.36403 16.5223 1.06725 16.4915C0.770472 16.4607 0.498098 16.3132 0.310046 16.0816C0.121994 15.8499 0.0336681 15.553 0.0644995 15.2563C0.266335 13.3163 0.938018 11.4547 2.02139 9.83276C3.10476 8.21083 4.56716 6.87742 6.28196 5.948C7.99675 5.01857 9.91226 4.52116 11.8626 4.49881C13.813 4.47647 15.7394 4.92987 17.475 5.81976L18.78 3.56076C18.8539 3.43279 18.9524 3.32064 19.0697 3.23072C19.1869 3.14079 19.3208 3.07487 19.4636 3.0367C19.6064 2.99853 19.7553 2.98887 19.9018 3.00827C20.0483 3.02767 20.1896 3.07575 20.3175 3.14976ZM20.157 9.22026C20.3989 9.04565 20.7002 8.97426 20.9947 9.0218C21.2893 9.06934 21.5528 9.23191 21.7275 9.47376C23.2884 11.6348 24.0854 14.2541 23.9925 16.9183C23.989 17.067 23.9561 17.2137 23.8956 17.3496C23.8351 17.4856 23.7482 17.6082 23.6399 17.7103C23.5317 17.8125 23.4043 17.8921 23.265 17.9447C23.1258 17.9972 22.9775 18.0216 22.8288 18.0165C22.6801 18.0113 22.5338 17.9767 22.3986 17.9146C22.2633 17.8525 22.1417 17.7642 22.0408 17.6549C21.9399 17.5455 21.8617 17.4171 21.8108 17.2773C21.7598 17.1375 21.7371 16.9889 21.744 16.8403C21.8196 14.6753 21.172 12.5468 19.9035 10.7908C19.8171 10.6709 19.7552 10.5352 19.7213 10.3914C19.6873 10.2476 19.682 10.0985 19.7057 9.9527C19.7294 9.80686 19.7816 9.66712 19.8593 9.54145C19.9369 9.41577 20.0386 9.30664 20.1585 9.22026H20.157ZM14.25 16.4998C14.25 17.0965 14.0129 17.6688 13.591 18.0908C13.169 18.5127 12.5967 18.7498 12 18.7498C11.4033 18.7498 10.831 18.5127 10.409 18.0908C9.98705 17.6688 9.75 17.0965 9.75 16.4998C9.75 15.903 9.98705 15.3307 10.409 14.9088C10.831 14.4868 11.4033 14.2498 12 14.2498C12.5967 14.2498 13.169 14.4868 13.591 14.9088C14.0129 15.3307 14.25 15.903 14.25 16.4998Z" fill="#333333"/>
</svg>
