<svg width="24" height="24" viewBox="0 0 24 24" fill="none" xmlns="http://www.w3.org/2000/svg">
<path fill-rule="evenodd" clip-rule="evenodd" d="M20.3175 3.15001C20.4455 3.22394 20.5576 3.32237 20.6475 3.43966C20.7375 3.55695 20.8034 3.69082 20.8416 3.8336C20.8797 3.97638 20.8894 4.12529 20.87 4.2718C20.8506 4.41832 20.8025 4.55958 20.7285 4.68751L15.5205 13.698C16.2016 14.5548 16.547 15.6305 16.4922 16.7236C16.4374 17.8168 15.986 18.8525 15.2226 19.6368C14.4592 20.4212 13.4361 20.9004 12.3448 20.9848C11.2536 21.0692 10.169 20.753 9.29404 20.0953C8.41912 19.4377 7.81387 18.4837 7.59161 17.412C7.36935 16.3403 7.54531 15.2243 8.08654 14.2729C8.62778 13.3216 9.49719 12.6001 10.532 12.2436C11.5668 11.8871 12.6961 11.9199 13.7085 12.336L16.347 7.77301C15.3366 7.26938 14.2464 6.94506 13.125 6.81451V7.50001C13.125 7.79838 13.0065 8.08453 12.7955 8.2955C12.5845 8.50648 12.2984 8.62501 12 8.62501C11.7016 8.62501 11.4155 8.50648 11.2045 8.2955C10.9935 8.08453 10.875 7.79838 10.875 7.50001V6.81451C9.92952 6.92428 9.00522 7.17191 8.1315 7.54951L8.475 8.14351C8.54887 8.27155 8.59679 8.41288 8.61604 8.55944C8.63529 8.706 8.62548 8.85492 8.58717 8.99769C8.54887 9.14046 8.48282 9.27429 8.3928 9.39153C8.30277 9.50878 8.19054 9.60714 8.0625 9.68101C7.93446 9.75488 7.79312 9.8028 7.64656 9.82205C7.5 9.8413 7.35109 9.83149 7.20832 9.79318C7.06555 9.75488 6.93172 9.68883 6.81447 9.59881C6.69723 9.50878 6.59887 9.39655 6.525 9.26851L6.183 8.67451C5.41893 9.24283 4.74225 9.92002 4.1745 10.6845L4.7685 11.025C5.02708 11.1742 5.21582 11.42 5.29317 11.7083C5.37053 11.9967 5.33018 12.3039 5.181 12.5625C5.10713 12.6905 5.00876 12.8028 4.89152 12.8928C4.77428 12.9828 4.64045 13.0489 4.49768 13.0872C4.20934 13.1645 3.90208 13.1242 3.6435 12.975L3.0495 12.6315C2.65684 13.5405 2.40495 14.5041 2.3025 15.489C2.27167 15.7858 2.1242 16.0582 1.89255 16.2462C1.66089 16.4343 1.36402 16.5226 1.06725 16.4918C0.77047 16.4609 0.498096 16.3135 0.310044 16.0818C0.121992 15.8502 0.0336662 15.5533 0.0644976 15.2565C0.266333 13.3165 0.938016 11.4549 2.02139 9.833C3.10476 8.21107 4.56716 6.87766 6.28195 5.94824C7.99675 5.01882 9.91226 4.5214 11.8626 4.49906C13.813 4.47671 15.7394 4.93012 17.475 5.82001L18.78 3.56101C18.8539 3.43303 18.9524 3.32088 19.0697 3.23096C19.1869 3.14104 19.3208 3.07511 19.4636 3.03694C19.6064 2.99877 19.7553 2.98911 19.9018 3.00851C20.0483 3.02791 20.1896 3.07599 20.3175 3.15001ZM20.157 9.22051C20.3989 9.04589 20.7002 8.9745 20.9947 9.02204C21.2893 9.06958 21.5528 9.23216 21.7275 9.47401C23.2884 11.635 24.0854 14.2543 23.9925 16.9185C23.989 17.0673 23.9561 17.2139 23.8956 17.3499C23.8351 17.4858 23.7482 17.6084 23.6399 17.7106C23.5317 17.8127 23.4043 17.8924 23.265 17.9449C23.1258 17.9975 22.9775 18.0219 22.8288 18.0167C22.6801 18.0115 22.5338 17.9769 22.3986 17.9149C22.2633 17.8528 22.1417 17.7645 22.0408 17.6551C21.9399 17.5457 21.8617 17.4174 21.8108 17.2775C21.7598 17.1377 21.7371 16.9892 21.744 16.8405C21.8196 14.6755 21.172 12.547 19.9035 10.791C19.8171 10.6711 19.7552 10.5354 19.7212 10.3916C19.6873 10.2479 19.682 10.0988 19.7057 9.95294C19.7294 9.80711 19.7816 9.66736 19.8593 9.54169C19.9369 9.41602 20.0386 9.30688 20.1585 9.22051H20.157ZM14.25 16.5C14.25 17.0967 14.0129 17.669 13.591 18.091C13.169 18.513 12.5967 18.75 12 18.75C11.4033 18.75 10.831 18.513 10.409 18.091C9.98705 17.669 9.75 17.0967 9.75 16.5C9.75 15.9033 9.98705 15.331 10.409 14.909C10.831 14.4871 11.4033 14.25 12 14.25C12.5967 14.25 13.169 14.4871 13.591 14.909C14.0129 15.331 14.25 15.9033 14.25 16.5Z" fill="white"/>
</svg>
