<svg width="20" height="20" viewBox="0 0 20 20" fill="none" xmlns="http://www.w3.org/2000/svg">
<path d="M6.66667 5.0013V3.4388C6.66667 2.96915 6.85324 2.51873 7.18533 2.18663C7.51743 1.85454 7.96785 1.66797 8.4375 1.66797H11.5625C12.0322 1.66797 12.4826 1.85454 12.8147 2.18663C13.1468 2.51873 13.3333 2.96915 13.3333 3.4388V5.0013H14.8958C15.5865 5.0013 16.2489 5.27567 16.7373 5.76404C17.2256 6.25242 17.5 6.9148 17.5 7.60547V14.0638C17.5 14.7545 17.2256 15.4169 16.7373 15.9052C16.2489 16.3936 15.5865 16.668 14.8958 16.668H5.10417C4.4135 16.668 3.75112 16.3936 3.26274 15.9052C2.77437 15.4169 2.5 14.7545 2.5 14.0638V7.60547C2.5 6.9148 2.77437 6.25242 3.26274 5.76404C3.75112 5.27567 4.4135 5.0013 5.10417 5.0013H6.66667ZM7.70833 3.4388V5.0013H12.2917V3.4388C12.2917 3.34305 12.2728 3.24823 12.2362 3.15976C12.1995 3.0713 12.1458 2.99091 12.0781 2.9232C12.0104 2.85549 11.93 2.80178 11.8415 2.76514C11.7531 2.7285 11.6583 2.70964 11.5625 2.70964H8.4375C8.24411 2.70964 8.05865 2.78646 7.9219 2.9232C7.78516 3.05995 7.70833 3.24541 7.70833 3.4388ZM16.4583 7.60547C16.4583 7.19107 16.2937 6.79364 16.0007 6.50061C15.7077 6.20759 15.3102 6.04297 14.8958 6.04297H5.10417C4.68977 6.04297 4.29234 6.20759 3.99931 6.50061C3.70629 6.79364 3.54167 7.19107 3.54167 7.60547V9.0638C3.54167 9.4782 3.70629 9.87563 3.99931 10.1687C4.29234 10.4617 4.68977 10.6263 5.10417 10.6263H8.33333V10.418C8.33333 10.197 8.42113 9.98499 8.57741 9.82871C8.73369 9.67243 8.94565 9.58464 9.16667 9.58464H10.8333C11.0543 9.58464 11.2663 9.67243 11.4226 9.82871C11.5789 9.98499 11.6667 10.197 11.6667 10.418V10.6263H14.8958C15.3102 10.6263 15.7077 10.4617 16.0007 10.1687C16.2937 9.87563 16.4583 9.4782 16.4583 9.0638V7.60547ZM5.10417 11.668C4.54057 11.6688 3.99204 11.486 3.54167 11.1471V14.0638C3.54167 14.4782 3.70629 14.8756 3.99931 15.1687C4.29234 15.4617 4.68977 15.6263 5.10417 15.6263H14.8958C15.3102 15.6263 15.7077 15.4617 16.0007 15.1687C16.2937 14.8756 16.4583 14.4782 16.4583 14.0638V11.1471C16.008 11.486 15.4594 11.6688 14.8958 11.668H11.6667V12.0846C11.6667 12.3056 11.5789 12.5176 11.4226 12.6739C11.2663 12.8302 11.0543 12.918 10.8333 12.918H9.16667C8.94565 12.918 8.73369 12.8302 8.57741 12.6739C8.42113 12.5176 8.33333 12.3056 8.33333 12.0846V11.668H5.10417Z" fill="#333333"/>
</svg>
