<svg width="28" height="32" viewBox="0 0 28 32" fill="none" xmlns="http://www.w3.org/2000/svg">
<path d="M0.5 4.1875C0.5 2.014 2.264 0.25 4.4375 0.25H14.5625C16.736 0.25 18.5 2.014 18.5 4.1875V5.40925L25.1938 12.103C25.925 12.8343 26.505 13.7025 26.9007 14.658C27.2964 15.6135 27.5001 16.6376 27.5 17.6717V30.625C27.5 30.9234 27.3815 31.2095 27.1705 31.4205C26.9595 31.6315 26.6734 31.75 26.375 31.75C26.0766 31.75 25.7905 31.6315 25.5795 31.4205C25.3685 31.2095 25.25 30.9234 25.25 30.625V17.6717C25.2501 16.933 25.1048 16.2015 24.8222 15.5189C24.5396 14.8364 24.1253 14.2162 23.603 13.6937L18.5 8.59075V14.407L20.4215 16.3285C20.6327 16.5394 20.7515 16.8257 20.7518 17.1242C20.752 17.4227 20.6336 17.7091 20.4226 17.9204C20.2117 18.1316 19.9255 18.2504 19.6269 18.2506C19.3284 18.2508 19.042 18.1324 18.8308 17.9215L14.2655 13.354L13.3745 12.5755C13.0225 12.3952 12.6177 12.3464 12.2329 12.438C11.8482 12.5296 11.5088 12.7555 11.2757 13.075C11.0427 13.3946 10.9314 13.7868 10.9618 14.1811C10.9923 14.5755 11.1625 14.946 11.4417 15.226L14.7965 18.5785C14.9013 18.683 14.9845 18.8071 15.0412 18.9438C15.098 19.0805 15.1272 19.227 15.1273 19.375V21.625C15.1273 22.2217 15.3643 22.794 15.7863 23.216C16.2082 23.6379 16.7805 23.875 17.3773 23.875C17.6752 23.8756 17.9608 23.9944 18.1713 24.2053C18.3818 24.4162 18.5 24.702 18.5 25V27.8125C18.5 28.8568 18.0852 29.8583 17.3467 30.5967C16.6083 31.3352 15.6068 31.75 14.5625 31.75H4.4375C3.39321 31.75 2.39169 31.3352 1.65327 30.5967C0.914843 29.8583 0.5 28.8568 0.5 27.8125V4.1875ZM16.25 26.6875V25.9832C15.5959 25.8138 14.9884 25.4993 14.4725 25.063C13.7053 25.2142 13.0144 25.6271 12.5178 26.2312C12.0212 26.8353 11.7498 27.593 11.75 28.375V29.5H13.4375C13.6325 29.5 13.82 29.4813 14 29.4438V28.375C14 28.0766 14.1185 27.7905 14.3295 27.5795C14.5405 27.3685 14.8266 27.25 15.125 27.25H16.1938C16.2298 27.07 16.2485 26.8825 16.25 26.6875ZM12.4408 19.4065L9.85325 16.8167C9.15555 16.1193 8.74685 15.1843 8.70889 14.1985C8.67093 13.2127 9.0065 12.249 9.6485 11.5H9.5C8.77394 11.5001 8.05867 11.6758 7.41526 12.0122C6.77184 12.3487 6.21939 12.8358 5.80505 13.432C5.39072 14.0282 5.1268 14.7159 5.03584 15.4362C4.94488 16.1566 5.02956 16.8882 5.28267 17.5687C5.53579 18.2493 5.9498 18.8584 6.48939 19.3442C7.02897 19.83 7.67809 20.1781 8.38135 20.3586C9.0846 20.5392 9.8211 20.5469 10.528 20.3811C11.2349 20.2153 11.8911 19.8809 12.4408 19.4065ZM7.25 3.625V2.5H5.5625C5.3675 2.5 5.18 2.51875 5 2.55625V3.625C5 3.92337 4.88147 4.20952 4.6705 4.4205C4.45952 4.63147 4.17337 4.75 3.875 4.75H2.80625C2.76875 4.93 2.75 5.1175 2.75 5.3125V7H3.875C4.77011 7 5.62855 6.64442 6.26149 6.01149C6.89442 5.37855 7.25 4.52011 7.25 3.625ZM3.875 25H2.75V26.6875C2.75 26.8825 2.76875 27.07 2.80625 27.25H3.875C4.17337 27.25 4.45952 27.3685 4.6705 27.5795C4.88147 27.7905 5 28.0766 5 28.375V29.4438C5.18 29.4798 5.3675 29.4985 5.5625 29.5H7.25V28.375C7.25 27.4799 6.89442 26.6214 6.26149 25.9885C5.62855 25.3556 4.77011 25 3.875 25ZM14 3.625V2.55625C13.8148 2.51938 13.6264 2.50054 13.4375 2.5H11.75V3.625C11.75 4.52011 12.1056 5.37855 12.7385 6.01149C13.3714 6.64442 14.2299 7 15.125 7H16.25V5.3125C16.25 5.1175 16.2313 4.93 16.1938 4.75H15.125C14.8266 4.75 14.5405 4.63147 14.3295 4.4205C14.1185 4.20952 14 3.92337 14 3.625Z" fill="#007C0C"/>
</svg>
