<svg width="25" height="24" viewBox="0 0 25 24" fill="none" xmlns="http://www.w3.org/2000/svg">
<path d="M16.6 16C16.6 14.895 13.466 14 9.60004 14M16.6 16C16.6 17.105 13.466 18 9.60004 18C5.73404 18 2.60004 17.105 2.60004 16M16.6 16V20.937C16.6 22.076 13.466 23 9.60004 23C5.73404 23 2.60004 22.077 2.60004 20.937V16M16.6 16C20.424 16 23.6 15.013 23.6 14V4M9.60004 14C5.73404 14 2.60004 14.895 2.60004 16M9.60004 14C5.18204 14 1.60004 13.013 1.60004 12V7M9.60004 5C5.18204 5 1.60004 5.895 1.60004 7M1.60004 7C1.60004 8.105 5.18204 9 9.60004 9C9.60004 10.013 12.853 11 16.677 11C20.501 11 23.6 10.013 23.6 9M23.6 4C23.6 2.895 20.5 2 16.677 2C12.854 2 9.75404 2.895 9.75404 4M23.6 4C23.6 5.105 20.5 6 16.677 6C12.854 6 9.75404 5.105 9.75404 4M9.75404 4V14.166" stroke="#8280FF" stroke-width="2"/>
</svg>
