<svg width="14" height="10" viewBox="0 0 14 10" fill="none" xmlns="http://www.w3.org/2000/svg">
<path d="M8.25 8.33333C8.41576 8.33333 8.57473 8.39918 8.69194 8.51639C8.80915 8.6336 8.875 8.79257 8.875 8.95833C8.875 9.12409 8.80915 9.28306 8.69194 9.40028C8.57473 9.51749 8.41576 9.58333 8.25 9.58333H5.75C5.58424 9.58333 5.42527 9.51749 5.30806 9.40028C5.19085 9.28306 5.125 9.12409 5.125 8.95833C5.125 8.79257 5.19085 8.6336 5.30806 8.51639C5.42527 8.39918 5.58424 8.33333 5.75 8.33333H8.25ZM10.75 4.16667C10.9158 4.16667 11.0747 4.23251 11.1919 4.34973C11.3092 4.46694 11.375 4.62591 11.375 4.79167C11.375 4.95743 11.3092 5.1164 11.1919 5.23361C11.0747 5.35082 10.9158 5.41667 10.75 5.41667H3.25C3.08424 5.41667 2.92527 5.35082 2.80806 5.23361C2.69085 5.1164 2.625 4.95743 2.625 4.79167C2.625 4.62591 2.69085 4.46694 2.80806 4.34973C2.92527 4.23251 3.08424 4.16667 3.25 4.16667H10.75ZM13.25 0C13.4158 0 13.5747 0.0658479 13.6919 0.183058C13.8092 0.300268 13.875 0.45924 13.875 0.625C13.875 0.79076 13.8092 0.949732 13.6919 1.06694C13.5747 1.18415 13.4158 1.25 13.25 1.25H0.75C0.58424 1.25 0.425268 1.18415 0.308058 1.06694C0.190848 0.949732 0.125 0.79076 0.125 0.625C0.125 0.45924 0.190848 0.300268 0.308058 0.183058C0.425268 0.0658479 0.58424 0 0.75 0H13.25Z" fill="#5C5C5C"/>
</svg>
