<svg width="24" height="24" viewBox="0 0 24 24" fill="none" xmlns="http://www.w3.org/2000/svg">
<path d="M18.755 12.9529C18.755 13.1996 18.657 13.4361 18.4826 13.6106C18.3082 13.785 18.0716 13.8829 17.825 13.8829C17.5783 13.8829 17.3418 13.785 17.1674 13.6106C16.993 13.4361 16.895 13.1996 16.895 12.9529C16.895 12.7063 16.993 12.4697 17.1674 12.2953C17.3418 12.1209 17.5783 12.0229 17.825 12.0229C18.0716 12.0229 18.3082 12.1209 18.4826 12.2953C18.657 12.4697 18.755 12.7063 18.755 12.9529Z" stroke="black" stroke-width="0.5" stroke-linecap="round" stroke-linejoin="round"/>
<path d="M21.75 15.331C21.6797 15.3369 21.6091 15.3399 21.5385 15.34H17.422C17.1186 15.3406 16.8181 15.2815 16.5376 15.166C16.2571 15.0505 16.0021 14.8809 15.7871 14.6669C15.5721 14.4529 15.4014 14.1986 15.2847 13.9186C15.1681 13.6386 15.1077 13.3383 15.107 13.035V12.765C15.1063 12.4616 15.1654 12.1611 15.2809 11.8806C15.3964 11.6001 15.566 11.345 15.78 11.1301C15.9941 10.9151 16.2484 10.7444 16.5284 10.6277C16.8084 10.511 17.1086 10.4506 17.412 10.45H21.5385C21.6102 10.45 21.6807 10.4533 21.75 10.46" stroke="black" stroke-width="0.5" stroke-linecap="round" stroke-linejoin="round"/>
<path d="M2.54 6.12644H21.1715C21.4915 6.12644 21.75 6.38494 21.75 6.70544V20.0984C21.75 20.4184 21.492 20.6769 21.1715 20.6769H2.8285C2.75266 20.6771 2.67754 20.6623 2.60742 20.6334C2.53731 20.6045 2.47357 20.562 2.41985 20.5085C2.36613 20.455 2.32349 20.3914 2.29434 20.3214C2.2652 20.2514 2.25013 20.1763 2.25 20.1004V6.65394C2.25 6.03994 3.183 5.71244 3.915 5.58794L17.03 3.35544C18.294 3.14044 19.367 4.01044 19.7 5.24894L19.925 6.08694" stroke="black" stroke-width="0.5" stroke-linecap="round" stroke-linejoin="round"/>
</svg>
