<svg width="24" height="24" viewBox="0 0 24 24" fill="none" xmlns="http://www.w3.org/2000/svg">
<path d="M0 0H12C18.6274 0 24 5.37258 24 12C24 18.6274 18.6274 24 12 24H0V0Z" fill="#F58735"/>
<path d="M18.755 12.9534C18.755 13.2001 18.657 13.4366 18.4826 13.611C18.3082 13.7855 18.0717 13.8834 17.825 13.8834C17.5784 13.8834 17.3418 13.7855 17.1674 13.611C16.993 13.4366 16.895 13.2001 16.895 12.9534C16.895 12.7068 16.993 12.4702 17.1674 12.2958C17.3418 12.1214 17.5784 12.0234 17.825 12.0234C18.0717 12.0234 18.3082 12.1214 18.4826 12.2958C18.657 12.4702 18.755 12.7068 18.755 12.9534Z" stroke="white" stroke-width="0.5" stroke-linecap="round" stroke-linejoin="round"/>
<path d="M21.75 15.3302C21.6797 15.3362 21.6091 15.3392 21.5385 15.3392H17.422C17.1186 15.3399 16.8181 15.2808 16.5376 15.1653C16.2571 15.0498 16.0021 14.8802 15.7871 14.6662C15.5721 14.4521 15.4014 14.1978 15.2847 13.9178C15.1681 13.6378 15.1077 13.3376 15.107 13.0342V12.7642C15.1063 12.4609 15.1654 12.1604 15.2809 11.8798C15.3964 11.5993 15.566 11.3443 15.78 11.1293C15.9941 10.9144 16.2484 10.7437 16.5284 10.627C16.8084 10.5103 17.1086 10.4499 17.412 10.4492H21.5385C21.6102 10.4492 21.6807 10.4526 21.75 10.4592" stroke="white" stroke-width="0.5" stroke-linecap="round" stroke-linejoin="round"/>
<path d="M2.54 6.12595H21.1715C21.4915 6.12595 21.75 6.38445 21.75 6.70495V20.098C21.75 20.418 21.492 20.6765 21.1715 20.6765H2.8285C2.75266 20.6766 2.67754 20.6618 2.60742 20.6329C2.53731 20.604 2.47357 20.5615 2.41985 20.508C2.36613 20.4545 2.32349 20.3909 2.29434 20.3209C2.2652 20.2509 2.25013 20.1758 2.25 20.1V6.65345C2.25 6.03945 3.183 5.71195 3.915 5.58745L17.03 3.35495C18.294 3.13995 19.367 4.00995 19.7 5.24845L19.925 6.08645" stroke="white" stroke-width="0.5" stroke-linecap="round" stroke-linejoin="round"/>
</svg>
