<svg width="19" height="21" viewBox="0 0 19 21" fill="none" xmlns="http://www.w3.org/2000/svg">
<path d="M14.414 8.414C15 7.828 15 6.886 15 5C15 3.114 15 2.172 14.414 1.586M14.414 8.414C13.828 9 12.886 9 11 9H7C5.114 9 4.172 9 3.586 8.414M14.414 1.586C13.828 1 12.886 1 11 1H7C5.114 1 4.172 1 3.586 1.586M3.586 1.586C3 2.172 3 3.114 3 5C3 6.886 3 7.828 3.586 8.414M10 5C10 5.26522 9.89464 5.51957 9.70711 5.70711C9.51957 5.89464 9.26522 6 9 6C8.73478 6 8.48043 5.89464 8.29289 5.70711C8.10536 5.51957 8 5.26522 8 5C8 4.73478 8.10536 4.48043 8.29289 4.29289C8.48043 4.10536 8.73478 4 9 4C9.26522 4 9.51957 4.10536 9.70711 4.29289C9.89464 4.48043 10 4.73478 10 5Z" stroke="#FF9871" stroke-width="1.5"/>
<path d="M15 4C14.2044 4 13.4413 3.68393 12.8787 3.12132C12.3161 2.55871 12 1.79565 12 1M15 6C14.2044 6 13.4413 6.31607 12.8787 6.87868C12.3161 7.44129 12 8.20435 12 9M3 4C3.79565 4 4.55871 3.68393 5.12132 3.12132C5.68393 2.55871 6 1.79565 6 1M3 6C3.79565 6 4.55871 6.31607 5.12132 6.87868C5.68393 7.44129 6 8.20435 6 9M1 19.388H3.26C4.27 19.388 5.293 19.494 6.276 19.696C8.031 20.0565 9.83676 20.0965 11.606 19.814M10.676 16.517C10.796 16.503 10.911 16.487 11.021 16.47C11.932 16.325 12.697 15.837 13.397 15.308L15.205 13.943C15.5275 13.7084 15.9161 13.582 16.315 13.582C16.7139 13.582 17.1025 13.7084 17.425 13.943C17.998 14.376 18.174 15.089 17.811 15.671C17.388 16.349 16.792 17.216 16.22 17.746M10.676 16.517C10.6394 16.5212 10.6027 16.5252 10.566 16.529M10.676 16.517C10.8361 16.4737 10.9828 16.3912 11.103 16.277C11.2537 16.1466 11.3767 15.9874 11.4649 15.8087C11.553 15.63 11.6045 15.4355 11.6163 15.2366C11.628 15.0377 11.5998 14.8384 11.5333 14.6506C11.4668 14.4628 11.3633 14.2902 11.229 14.143C11.0987 13.9983 10.9469 13.8746 10.779 13.776C7.982 12.107 3.629 13.378 1 15.243M10.676 16.517C10.6399 16.5249 10.603 16.5289 10.566 16.529M10.566 16.529C9.96292 16.5896 9.35534 16.5909 8.752 16.533" stroke="#FF9871" stroke-width="1.5" stroke-linecap="round"/>
</svg>
