<svg width="43" height="13" viewBox="0 0 43 13" fill="none" xmlns="http://www.w3.org/2000/svg">
<path d="M6.276 12V3.6H7.284V12H6.276ZM0.912 12V3.6H1.92V12H0.912ZM1.728 8.136V7.308H6.528V8.136H1.728ZM11.6597 12.144C11.0997 12.144 10.5997 12.012 10.1597 11.748C9.72769 11.476 9.38769 11.1 9.13969 10.62C8.89169 10.132 8.76769 9.568 8.76769 8.928C8.76769 8.28 8.89169 7.716 9.13969 7.236C9.38769 6.748 9.72769 6.372 10.1597 6.108C10.5997 5.836 11.1077 5.7 11.6837 5.7C12.2837 5.7 12.7877 5.836 13.1957 6.108C13.6117 6.372 13.9277 6.724 14.1437 7.164C14.3597 7.604 14.4677 8.084 14.4677 8.604C14.4677 8.684 14.4677 8.768 14.4677 8.856C14.4677 8.944 14.4637 9.044 14.4557 9.156H9.52369V8.376H13.4717C13.4557 7.792 13.2757 7.344 12.9317 7.032C12.5957 6.712 12.1717 6.552 11.6597 6.552C11.3237 6.552 11.0117 6.632 10.7237 6.792C10.4357 6.952 10.1997 7.188 10.0157 7.5C9.83969 7.804 9.75169 8.188 9.75169 8.652V8.988C9.75169 9.492 9.83969 9.916 10.0157 10.26C10.1997 10.604 10.4357 10.864 10.7237 11.04C11.0117 11.208 11.3237 11.292 11.6597 11.292C12.0997 11.292 12.4517 11.204 12.7157 11.028C12.9797 10.844 13.1757 10.588 13.3037 10.26H14.2997C14.1957 10.62 14.0237 10.944 13.7837 11.232C13.5517 11.512 13.2557 11.736 12.8957 11.904C12.5437 12.064 12.1317 12.144 11.6597 12.144ZM15.8283 12V3.36H16.8363V12H15.8283ZM18.5119 12V3.36H19.5199V12H18.5119ZM23.9075 12.144C23.3315 12.144 22.8195 12.012 22.3715 11.748C21.9235 11.484 21.5715 11.112 21.3155 10.632C21.0675 10.144 20.9435 9.576 20.9435 8.928C20.9435 8.272 21.0715 7.704 21.3275 7.224C21.5835 6.744 21.9355 6.372 22.3835 6.108C22.8395 5.836 23.3555 5.7 23.9315 5.7C24.5075 5.7 25.0195 5.836 25.4675 6.108C25.9155 6.372 26.2635 6.744 26.5115 7.224C26.7675 7.704 26.8955 8.272 26.8955 8.928C26.8955 9.576 26.7675 10.144 26.5115 10.632C26.2555 11.112 25.8995 11.484 25.4435 11.748C24.9955 12.012 24.4835 12.144 23.9075 12.144ZM23.9075 11.28C24.2675 11.28 24.5955 11.192 24.8915 11.016C25.1875 10.84 25.4235 10.576 25.5995 10.224C25.7755 9.872 25.8635 9.44 25.8635 8.928C25.8635 8.4 25.7755 7.964 25.5995 7.62C25.4315 7.268 25.1995 7.004 24.9035 6.828C24.6075 6.652 24.2835 6.564 23.9315 6.564C23.5795 6.564 23.2555 6.652 22.9595 6.828C22.6635 7.004 22.4235 7.268 22.2395 7.62C22.0635 7.964 21.9755 8.4 21.9755 8.928C21.9755 9.44 22.0635 9.872 22.2395 10.224C22.4155 10.576 22.6475 10.84 22.9355 11.016C23.2315 11.192 23.5555 11.28 23.9075 11.28ZM30.6914 12.84H42.6914V0.84H30.6914V12.84Z" fill="#333333"/>
</svg>
