<svg width="30" height="30" viewBox="0 0 30 30" fill="none" xmlns="http://www.w3.org/2000/svg">
<path d="M15.627 2.5H15.9682C20.0432 2.5 22.0832 2.5 23.4982 3.4975C23.9032 3.7825 24.2632 4.1225 24.567 4.50375C25.627 5.83625 25.627 7.75375 25.627 11.5912V14.7725C25.627 18.4762 25.627 20.3287 25.0407 21.8075C24.0982 24.1862 22.1057 26.0612 19.5782 26.9487C18.007 27.5 16.0407 27.5 12.1032 27.5C9.8557 27.5 8.7307 27.5 7.8332 27.185C6.38945 26.6775 5.2507 25.6062 4.71195 24.2475C4.37695 23.4025 4.37695 22.3437 4.37695 20.2275V15" stroke="#F58735" stroke-width="1.25" stroke-linecap="round" stroke-linejoin="round"/>
<path d="M25.625 15C25.625 16.105 25.1861 17.1647 24.4047 17.946C23.6234 18.7273 22.5637 19.1662 21.4587 19.1662C20.6262 19.1662 19.645 19.0212 18.8363 19.2375C18.483 19.3325 18.1609 19.5186 17.9023 19.7773C17.6436 20.0359 17.4575 20.358 17.3625 20.7112C17.1463 21.52 17.2913 22.5012 17.2913 23.3337C17.2913 23.8809 17.1835 24.4226 16.9741 24.9281C16.7647 25.4336 16.4579 25.8929 16.071 26.2797C15.6841 26.6666 15.2248 26.9735 14.7194 27.1829C14.2139 27.3922 13.6721 27.5 13.125 27.5M5.625 5.625C6.24 4.9925 7.875 2.5 8.75 2.5M8.75 2.5C9.625 2.5 11.26 4.9925 11.875 5.625M8.75 2.5V12.5" stroke="#F58735" stroke-width="1.25" stroke-linecap="round" stroke-linejoin="round"/>
</svg>
