<svg width="24" height="24" viewBox="0 0 24 24" fill="none" xmlns="http://www.w3.org/2000/svg">
<path d="M9.00002 2.72512C9.0065 2.62673 9.03232 2.53059 9.076 2.44219C9.11968 2.35378 9.18036 2.27486 9.25457 2.20994C9.32879 2.14501 9.41507 2.09536 9.5085 2.06382C9.60192 2.03228 9.70064 2.01947 9.79902 2.02612C15.791 2.42012 20.581 7.21112 20.974 13.2051C20.9805 13.3034 20.9675 13.402 20.9358 13.4953C20.9041 13.5886 20.8544 13.6747 20.7894 13.7487C20.7245 13.8228 20.6456 13.8833 20.5572 13.9269C20.4689 13.9705 20.3728 13.9962 20.2745 14.0026C20.1762 14.0091 20.0776 13.9961 19.9844 13.9644C19.8911 13.9327 19.805 13.883 19.7309 13.818C19.5813 13.6869 19.49 13.5016 19.477 13.3031C19.134 8.06112 14.942 3.86812 9.70002 3.52312C9.60164 3.51677 9.50547 3.49107 9.41702 3.44751C9.32857 3.40395 9.24958 3.34338 9.18457 3.26926C9.11955 3.19515 9.06979 3.10894 9.03812 3.01557C9.00645 2.9222 8.99351 2.8235 9.00002 2.72512ZM7.58902 21.3861L7.97702 21.7721C8.11753 21.9117 8.30751 21.99 8.50552 21.99C8.70354 21.99 8.89352 21.9117 9.03402 21.7721L10.38 20.4351C11.108 19.7121 11.948 18.8761 12.392 18.4321C13.1606 17.6635 13.684 16.6842 13.896 15.6181C14.108 14.552 13.9991 13.4469 13.5831 12.4427C13.1671 11.4385 12.4627 10.5802 11.5589 9.9763C10.6551 9.37242 9.5925 9.05011 8.50552 9.05011C7.41855 9.05011 6.35598 9.37242 5.45218 9.9763C4.54838 10.5802 3.84395 11.4385 3.42795 12.4427C3.01195 13.4469 2.90307 14.552 3.11508 15.6181C3.32709 16.6842 3.85046 17.6635 4.61902 18.4321C5.60725 19.4186 6.59725 20.4032 7.58902 21.3861ZM8.50002 15.7501C8.1685 15.7501 7.85056 15.6184 7.61614 15.384C7.38172 15.1496 7.25002 14.8316 7.25002 14.5001C7.25002 14.1686 7.38172 13.8507 7.61614 13.6162C7.85056 13.3818 8.1685 13.2501 8.50002 13.2501C8.83154 13.2501 9.14949 13.3818 9.38391 13.6162C9.61833 13.8507 9.75002 14.1686 9.75002 14.5001C9.75002 14.8316 9.61833 15.1496 9.38391 15.384C9.14949 15.6184 8.83154 15.7501 8.50002 15.7501ZM9.81802 5.50312C9.71982 5.49413 9.62082 5.50459 9.52666 5.5339C9.43251 5.56322 9.34506 5.61081 9.26932 5.67396C9.19359 5.73711 9.13104 5.81457 9.08528 5.90192C9.03951 5.98927 9.01142 6.08478 9.00261 6.183C8.9938 6.28121 9.00445 6.3802 9.03394 6.4743C9.06343 6.5684 9.11119 6.65576 9.17448 6.73137C9.23777 6.80699 9.31536 6.86939 9.40279 6.91499C9.49022 6.96059 9.58579 6.9885 9.68402 6.99712C11.3091 7.14685 12.8305 7.86043 13.9846 9.01418C15.1387 10.1679 15.8528 11.6891 16.003 13.3141C16.012 13.4122 16.0401 13.5076 16.0859 13.5948C16.1317 13.682 16.1942 13.7594 16.2699 13.8224C16.3456 13.8855 16.4329 13.933 16.527 13.9623C16.621 13.9916 16.7199 14.0021 16.818 13.9931C16.9161 13.9842 17.0115 13.956 17.0987 13.9102C17.1859 13.8644 17.2633 13.8019 17.3263 13.7262C17.3894 13.6506 17.4369 13.5632 17.4662 13.4692C17.4955 13.3751 17.506 13.2762 17.497 13.1781C17.3149 11.2034 16.4473 9.35468 15.0447 7.95276C13.642 6.55085 11.7929 5.68418 9.81802 5.50312Z" fill="#FEC53D"/>
</svg>
