<svg width="24" height="24" viewBox="0 0 24 24" fill="none" xmlns="http://www.w3.org/2000/svg">
<path d="M2.28911 12.998C2.15244 12.998 2.03811 12.95 1.94611 12.854C1.85411 12.758 1.80811 12.639 1.80811 12.497C1.80811 12.355 1.85611 12.2363 1.95211 12.141C2.04811 12.0457 2.16677 11.998 2.30811 11.998H5.78811C5.93011 11.998 6.04911 12.046 6.14511 12.142C6.24111 12.238 6.28911 12.357 6.28911 12.499C6.28911 12.641 6.24111 12.7597 6.14511 12.855C6.04911 12.9503 5.93044 12.998 5.78911 12.998H2.28911ZM7.50211 19C6.80877 19 6.21844 18.7567 5.73111 18.27C5.24377 17.7853 5.00011 17.1953 5.00011 16.5H3.61611C3.39277 16.5 3.21444 16.4167 3.08111 16.25C2.94777 16.0833 2.90344 15.893 2.94811 15.679L3.26911 14.498H5.76411C6.32277 14.498 6.79511 14.3047 7.18111 13.918C7.56711 13.5313 7.76011 13.058 7.76011 12.498C7.76011 12.1913 7.69344 11.908 7.56011 11.648C7.42677 11.388 7.24144 11.1727 7.00411 11.002H8.81911C9.37911 11.002 9.85244 10.8087 10.2391 10.422C10.6258 10.0353 10.8191 9.56233 10.8191 9.003C10.8191 8.44367 10.6258 7.97033 10.2391 7.583C9.85244 7.19567 9.37911 7.002 8.81911 7.002H5.32711L5.63111 5.902C5.69244 5.64 5.82244 5.42433 6.02111 5.255C6.21777 5.085 6.45544 5 6.73411 5H16.7881C17.0441 5 17.2531 5.10267 17.4151 5.308C17.5764 5.51333 17.6281 5.742 17.5701 5.994L16.9981 8.5H18.2691C18.5251 8.5 18.7674 8.55733 18.9961 8.672C19.2254 8.786 19.4141 8.944 19.5621 9.146L21.3591 11.544C21.5044 11.7387 21.5988 11.9417 21.6421 12.153C21.6861 12.3637 21.6894 12.585 21.6521 12.817L21.0541 15.854C21.0168 16.0487 20.9221 16.205 20.7701 16.323C20.6181 16.441 20.4454 16.5 20.2521 16.5H19.7691C19.7691 17.1927 19.5264 17.7827 19.0411 18.27C18.5558 18.7573 17.9658 19.0007 17.2711 19C16.5764 18.9993 15.9861 18.756 15.5001 18.27C15.0134 17.7847 14.7701 17.1947 14.7701 16.5H10.0001C10.0001 17.1927 9.75744 17.7827 9.27211 18.27C8.78677 18.7573 8.19677 19.0007 7.50211 19ZM4.29011 9.502C4.14811 9.502 4.02911 9.454 3.93311 9.358C3.83711 9.262 3.78911 9.143 3.78911 9.001C3.78911 8.859 3.83711 8.74033 3.93311 8.645C4.02911 8.54967 4.14777 8.502 4.28911 8.502H8.7891C8.93111 8.502 9.05011 8.55 9.14611 8.646C9.24144 8.742 9.2891 8.861 9.2891 9.003C9.2891 9.145 9.24144 9.26367 9.14611 9.359C9.05077 9.45433 8.93177 9.502 8.7891 9.502H4.29011ZM7.50011 18C7.91144 18 8.26444 17.853 8.55911 17.559C8.85311 17.2643 9.00011 16.9113 9.00011 16.5C9.00011 16.0887 8.85311 15.7357 8.55911 15.441C8.26511 15.1463 7.91211 14.9993 7.50011 15C7.08811 15.0007 6.73511 15.1477 6.44111 15.441C6.14711 15.7357 6.00011 16.0887 6.00011 16.5C6.00011 16.9113 6.14711 17.2643 6.44111 17.559C6.73577 17.853 7.08877 18 7.50011 18ZM17.2701 18C17.6814 18 18.0341 17.853 18.3281 17.559C18.6221 17.2643 18.7691 16.9113 18.7691 16.5C18.7691 16.0887 18.6221 15.7357 18.3281 15.441C18.0341 15.1463 17.6811 14.9993 17.2691 15C16.8571 15.0007 16.5044 15.1477 16.2111 15.441C15.9164 15.7357 15.7691 16.0887 15.7691 16.5C15.7691 16.9113 15.9161 17.2643 16.2101 17.559C16.5048 17.853 16.8581 18 17.2701 18ZM15.8861 13.25H20.5391L20.7151 12.36L18.5771 9.5H16.7591L15.8861 13.25Z" fill="#F58735"/>
</svg>
