<svg width="24" height="24" viewBox="0 0 24 24" fill="none" xmlns="http://www.w3.org/2000/svg">
<path d="M20.0931 8.57702C19.7111 8.53802 19.6421 8.57702 19.5331 8.90002C19.4391 9.17802 19.4511 9.29502 19.5841 9.37902C19.7171 9.46302 19.6951 9.49102 19.4961 9.49202C19.0901 9.49202 18.8731 9.24602 18.4961 8.34002C18.3353 7.93592 18.1343 7.54898 17.8961 7.18502C17.7321 6.97802 17.7961 7.20502 18.0821 7.82902C18.28 8.24633 18.4536 8.67471 18.6021 9.11202L18.6821 9.43002L12.4381 9.39102C8.58111 9.36702 6.05611 9.40102 5.83811 9.47802C5.21811 9.69402 5.28311 9.20302 6.08611 7.58502C6.22696 7.33767 6.33711 7.07405 6.41411 6.80002C6.01352 7.30281 5.69492 7.86575 5.47011 8.46802C5.14811 9.24302 4.90011 9.50002 4.50011 9.48402C4.35511 9.47902 4.30811 9.44502 4.40011 9.40902C4.61011 9.32502 4.60711 8.79402 4.40011 8.61902C3.98428 8.51528 3.54461 8.57243 3.16911 8.77902C2.84511 8.97902 3.02811 9.23802 3.50611 9.25602L3.98711 9.27402L3.47411 9.36102C2.78611 9.47702 3.14811 9.64302 4.14511 9.66802L4.88211 9.68702L4.96911 10.287C4.996 10.5354 5.05102 10.78 5.13311 11.016C5.36715 11.1566 5.62749 11.2478 5.89811 11.284C6.36077 11.3974 6.80349 11.5805 7.21111 11.827L7.83611 12.227L7.42911 12.396C6.4103 12.5601 5.37346 12.5799 4.34911 12.455C4.04911 12.431 3.79511 12.033 3.79511 11.6C3.79645 11.1227 3.66511 11.044 3.40111 11.364C3.13895 12.9153 3.10996 14.4971 3.31511 16.057C3.40311 16.069 3.82111 16.088 4.24411 16.099L7.38711 16.188L8.70211 16.205C7.75411 16.158 7.64311 16.127 7.64311 15.905C7.64311 15.659 7.75811 15.653 12.0571 15.653C16.3801 15.653 16.4701 15.658 16.4051 15.905C16.3471 16.126 16.2051 16.162 15.2301 16.199C14.1471 16.241 14.1541 16.242 15.5301 16.268C17.0743 16.2717 18.617 16.1731 20.1481 15.973C20.4481 15.924 20.4741 15.936 20.2761 16.022C20.0341 16.128 20.0381 16.138 20.3401 16.207C20.5171 16.248 20.3281 16.259 19.9221 16.232C19.5161 16.205 19.2111 16.232 19.2471 16.29C19.4101 16.554 10.8101 16.69 6.71111 16.49C6.05078 16.4918 5.3919 16.4281 4.74411 16.3C4.77511 16.25 4.45811 16.213 4.04411 16.217C3.63011 16.221 3.28311 16.283 3.28411 16.353C3.28411 16.681 3.54011 16.793 4.37511 16.839L5.26911 16.887L4.27511 16.877L3.28011 16.867V17.228C3.28131 17.4381 3.32662 17.6456 3.41311 17.837C3.52611 18.048 3.68811 18.085 4.49911 18.085C5.31011 18.085 5.47111 18.048 5.58511 17.837C5.76511 17.499 5.75211 17.094 5.55711 17.016C5.46911 16.98 8.37011 16.947 12.0031 16.943C15.6361 16.939 18.5341 16.983 18.4421 17.043C18.2521 17.163 18.3621 17.831 18.5971 17.989C19.25 18.1337 19.9285 18.1145 20.5721 17.933C20.6836 17.7501 20.7376 17.538 20.7271 17.324V16.869L19.7321 16.879L18.7381 16.889L19.6641 16.841L20.5911 16.794L20.7381 16.254C20.8566 14.5817 20.8392 12.9025 20.6861 11.233C20.6191 10.872 19.8061 10.22 19.6771 10.424C19.6051 10.537 19.5771 10.524 19.5771 10.366C19.5771 9.92602 19.3451 10.025 19.2191 10.52C19.1141 10.934 19.1191 11.032 19.2681 11.032C19.3223 11.0247 19.3718 10.9977 19.4074 10.9562C19.443 10.9148 19.4621 10.8617 19.4611 10.807C19.4761 10.593 19.4791 10.593 19.5351 10.807C19.5771 10.967 19.7291 11.035 20.0651 11.042C20.3251 11.042 20.4651 11.081 20.3761 11.117C20.2871 11.153 20.2481 11.236 20.2891 11.302C20.3302 11.4904 20.3181 11.6865 20.2541 11.8683C20.1902 12.0502 20.077 12.2108 19.9271 12.332C18.8183 12.5617 17.6765 12.5823 16.5601 12.393L16.1751 12.227L16.7811 11.84C17.2099 11.5894 17.6737 11.404 18.1571 11.29C18.9861 11.114 18.9691 11.138 19.0911 10.006C19.1231 9.70602 19.1771 9.68302 19.8711 9.66402C20.8711 9.63502 21.2231 9.47502 20.5371 9.36402L20.0241 9.27702L20.5051 9.25902C21.3621 9.22302 21.0351 8.67302 20.0931 8.57702ZM6.74011 10.649C6.51337 10.4144 6.31224 10.1562 6.14011 9.87902C6.40469 10.115 6.64919 10.3726 6.87111 10.649C7.09844 10.8832 7.29963 11.1414 7.47111 11.419C7.20621 11.1834 6.96168 10.9258 6.74011 10.649ZM5.94611 13.768C5.98475 13.7492 6.02744 13.7403 6.07037 13.7421C6.1133 13.7438 6.15513 13.7562 6.19211 13.778C6.23411 13.821 6.15911 13.851 6.02311 13.846C5.88711 13.841 5.84311 13.809 5.94611 13.768ZM5.43311 13.127C5.47175 13.1082 5.51444 13.0993 5.55737 13.1011C5.6003 13.1028 5.64213 13.1152 5.67911 13.137C5.72111 13.18 5.64511 13.21 5.51011 13.204C5.37511 13.198 5.33011 13.168 5.43311 13.127ZM5.43311 13.64C5.47175 13.6212 5.51444 13.6123 5.55737 13.6141C5.6003 13.6158 5.64213 13.6282 5.67911 13.65C5.72111 13.693 5.64511 13.723 5.51011 13.718C5.37511 13.713 5.33011 13.681 5.43311 13.64ZM4.94411 13.579C4.76711 13.579 4.69511 13.55 4.78311 13.514C4.8872 13.4787 5.00002 13.4787 5.10411 13.514C5.19211 13.55 5.12011 13.579 4.94411 13.579ZM4.11011 12.858C4.32648 12.8708 4.54112 12.9043 4.75111 12.958C5.09711 13.046 5.10311 13.058 4.81511 13.058C4.59801 13.0527 4.38253 13.0191 4.17411 12.958C3.92311 12.878 3.90911 12.856 4.11011 12.858ZM4.52411 13.394C4.56711 13.436 4.49111 13.467 4.35611 13.461C4.22111 13.455 4.17611 13.424 4.27811 13.383C4.31683 13.3644 4.35957 13.3556 4.4025 13.3576C4.44543 13.3595 4.48721 13.372 4.52411 13.394ZM4.01111 13.265C4.05311 13.308 3.97811 13.338 3.84211 13.333C3.70611 13.328 3.66311 13.296 3.76511 13.255C3.80375 13.2362 3.84644 13.2273 3.88937 13.2291C3.9323 13.2308 3.97413 13.2432 4.01111 13.265ZM3.46811 12.565L3.77811 12.789C3.80711 12.813 3.77111 12.826 3.69811 12.826C3.57154 12.7898 3.46179 12.7101 3.38811 12.601C3.22511 12.4 3.23111 12.4 3.46811 12.569V12.565ZM3.71411 16.023C3.56511 16.017 3.53411 15.986 3.63711 15.945C3.67575 15.9262 3.71844 15.9173 3.76137 15.9191C3.8043 15.9208 3.84613 15.9332 3.88311 15.955C3.92511 16 3.84911 16.032 3.71411 16.027V16.023ZM5.58511 16.023C4.00011 15.859 3.66111 15.609 3.66111 14.625C3.66111 14.271 3.68011 14.26 4.14211 14.334C4.5189 14.4016 4.89314 14.4826 5.26411 14.577L5.90611 14.742L5.34511 14.67C4.90811 14.614 4.79711 14.636 4.84511 14.77C4.89624 14.8394 4.96085 14.8978 5.03509 14.9416C5.10932 14.9854 5.19164 15.0138 5.27711 15.025L5.65111 15.106L5.29811 15.122C5.10411 15.13 4.94611 15.195 4.94611 15.265C4.94611 15.335 5.10411 15.401 5.29811 15.411C5.59811 15.426 5.61011 15.436 5.36211 15.484C4.82111 15.584 5.02611 15.907 5.63511 15.907C5.95535 15.9075 6.27504 15.9336 6.59111 15.985C6.96211 16.06 6.98311 16.042 6.95711 15.697C6.93111 15.352 6.88211 15.324 6.29011 15.253L5.65111 15.177L6.22811 15.147L6.80611 15.117L6.35711 14.933C5.93311 14.76 5.92911 14.754 6.29311 14.82C6.52028 14.8522 6.72784 14.9664 6.87667 15.141C7.02551 15.3156 7.10533 15.5386 7.10111 15.768C7.05311 16.159 6.94111 16.178 5.58511 16.031V16.023ZM6.00011 15.563C6.1262 15.5291 6.25903 15.5291 6.38511 15.563C6.47211 15.598 6.37011 15.625 6.15811 15.622C5.94611 15.619 5.88011 15.6 6.00011 15.563ZM19.6001 12.909C19.9251 12.8453 20.2386 12.7331 20.5301 12.576C20.6381 12.487 20.7301 12.469 20.7301 12.537C20.7301 12.605 20.5941 12.723 20.4301 12.799C20.1296 12.9055 19.8173 12.9757 19.5001 13.008L18.8741 13.079L19.6001 12.909ZM19.7941 13.394C19.8361 13.436 19.7601 13.467 19.6251 13.461C19.4901 13.455 19.4451 13.424 19.5481 13.383C19.5863 13.3651 19.6283 13.3567 19.6705 13.3586C19.7126 13.3605 19.7537 13.3727 19.7901 13.394H19.7941ZM19.2801 13.522C19.3231 13.565 19.2471 13.595 19.1121 13.589C18.9771 13.583 18.9321 13.553 19.0351 13.512C19.0731 13.4941 19.1149 13.4856 19.1568 13.4874C19.1988 13.4891 19.2397 13.501 19.2761 13.522H19.2801ZM18.3851 13.13C18.4892 13.0947 18.602 13.0947 18.7061 13.13C18.7941 13.165 18.7221 13.194 18.5461 13.194C18.3701 13.194 18.2931 13.165 18.3811 13.13H18.3851ZM18.3851 13.643C18.4892 13.6077 18.602 13.6077 18.7061 13.643C18.7941 13.678 18.7221 13.707 18.5461 13.707C18.3701 13.707 18.2931 13.678 18.3811 13.643H18.3851ZM18.0221 15.93C18.9911 15.843 19.3871 15.589 18.7131 15.488L18.3531 15.434L18.7061 15.415C18.9001 15.404 19.0591 15.341 19.0591 15.276C19.0591 15.211 18.9001 15.132 18.7061 15.102C18.3771 15.053 18.3821 15.048 18.7701 15.03C19.0601 15.016 19.1871 14.948 19.1871 14.804C19.1871 14.573 18.8091 14.604 17.7671 14.935L17.1991 15.113L17.7761 15.146L18.3531 15.179L17.7121 15.257C16.9621 15.348 16.9181 15.335 17.1251 15.086C18.019 14.7038 18.9611 14.4464 19.9251 14.321C20.3381 14.248 20.3411 14.251 20.3411 14.763C20.3411 15.551 19.9541 15.863 18.8521 15.963C18.3661 16.008 17.7641 16.074 17.5151 16.11C17.3344 16.1514 17.1457 16.1417 16.9701 16.082C16.8351 15.948 16.8571 15.52 16.9991 15.52C17.1991 15.52 17.2781 15.749 17.0991 15.812C16.7091 15.955 17.1431 16.009 18.0181 15.93H18.0221ZM17.6821 15.563C17.8082 15.5291 17.941 15.5291 18.0671 15.563C18.1541 15.598 18.0521 15.625 17.8401 15.622C17.6281 15.619 17.5531 15.6 17.6781 15.563H17.6821ZM16.5911 13.31C16.7383 13.4603 16.8497 13.6418 16.9171 13.841L16.9381 13.861H16.9221C16.9819 14.0346 16.9801 14.2235 16.9171 14.3959C16.8541 14.5683 16.7337 14.7138 16.5761 14.808C16.2291 15.066 16.0501 15.079 12.2761 15.108C9.10011 15.13 8.24511 15.1 7.83211 14.95C6.86611 14.598 6.76011 14.099 7.48611 13.321C7.81661 12.9254 8.28837 12.6743 8.80111 12.621C11.0721 12.2319 13.3954 12.2658 15.6541 12.721C16.0081 12.8417 16.3289 13.0434 16.5911 13.31ZM17.0001 10.97C16.8521 11.1392 16.6842 11.29 16.5001 11.419C16.4651 11.419 16.6311 11.219 16.8711 10.97C17.0191 10.8008 17.187 10.6501 17.3711 10.521C17.4081 10.521 17.2411 10.723 17.0001 10.97ZM18.1711 9.78302C18.0968 9.89154 17.9873 9.97103 17.8611 10.008C17.7871 10.008 17.7511 9.99102 17.7801 9.97102L18.0901 9.74702C18.3301 9.57302 18.3361 9.57502 18.1731 9.78302H18.1711ZM4.18711 10.4C3.89851 10.569 3.63011 10.7703 3.38711 11C3.23411 11.188 3.24211 11.2 3.44811 11.126C3.66107 11.0653 3.88168 11.0357 4.10311 11.038C4.48811 11.038 4.52011 11.007 4.48011 10.685C4.44011 10.363 4.44211 10.351 4.53411 10.643C4.55305 10.7199 4.58702 10.7922 4.63404 10.8559C4.68107 10.9196 4.74023 10.9733 4.80811 11.014C4.93111 11.055 4.96011 11.006 4.90111 10.852C4.84655 10.6809 4.8179 10.5026 4.81611 10.323V10.01L4.18711 10.4ZM7.28011 6.52902C9.39311 6.22102 16.3531 6.29002 17.3591 6.62902C17.4871 6.67302 17.4501 6.60802 17.2711 6.47402C16.8811 6.18502 14.4201 5.91802 12.0631 5.91102C10.2861 5.8544 8.50942 6.035 6.78011 6.44802C6.62711 6.60002 6.70011 6.61302 7.28011 6.52902ZM15.8571 12.83H14.2251C12.7091 12.83 12.5711 12.85 12.2851 13.118L11.9771 13.407L11.7431 13.118C11.5221 12.846 11.4161 12.83 9.82811 12.83H8.14711L7.69511 13.247C7.09511 13.802 7.01511 14.264 7.46211 14.616C7.59225 14.7531 7.76576 14.841 7.95327 14.8649C8.14078 14.8888 8.33078 14.8471 8.49111 14.747C10.8443 14.5518 13.2099 14.5579 15.5621 14.765C15.7473 14.8442 15.9519 14.8663 16.1497 14.8283C16.3475 14.7904 16.5294 14.6942 16.6721 14.552C17.0281 14.197 16.9091 14.006 16.2641 13.896C15.5211 13.769 8.72311 13.757 7.83011 13.881C7.28911 13.956 7.23911 13.947 7.50911 13.822C10.4132 13.6328 13.3257 13.6128 16.2321 13.762L16.9221 13.862V13.845L16.4031 13.345L15.8571 12.83Z" fill="#333333"/>
</svg>
