<svg width="24" height="24" viewBox="0 0 24 24" fill="none" xmlns="http://www.w3.org/2000/svg">
<path d="M12 18.9375C12.5523 18.9375 13 18.4898 13 17.9375C13 17.3852 12.5523 16.9375 12 16.9375C11.4477 16.9375 11 17.3852 11 17.9375C11 18.4898 11.4477 18.9375 12 18.9375Z" fill="#333333"/>
<path d="M16.7273 21.9365H7.27329C6.6459 21.8991 6.05867 21.6154 5.63936 21.1472C5.22005 20.679 5.00259 20.0642 5.03429 19.4365V4.5625C5.00259 3.93479 5.22005 3.31997 5.63936 2.85178C6.05867 2.38359 6.6459 2.09993 7.27329 2.0625H16.7273C17.3547 2.09993 17.9419 2.38359 18.3612 2.85178C18.7805 3.31997 18.998 3.93479 18.9663 4.5625V19.4365C18.998 20.0642 18.7805 20.679 18.3612 21.1472C17.9419 21.6154 17.3547 21.8991 16.7273 21.9365ZM7.27329 3.0625C6.91157 3.10071 6.57925 3.27917 6.34761 3.5596C6.11598 3.84003 6.00349 4.20008 6.03429 4.5625V19.4365C6.00349 19.7989 6.11598 20.159 6.34761 20.4394C6.57925 20.7198 6.91157 20.8983 7.27329 20.9365H16.7273C17.089 20.8983 17.4213 20.7198 17.653 20.4394C17.8846 20.159 17.9971 19.7989 17.9663 19.4365V4.5625C17.9971 4.20008 17.8846 3.84003 17.653 3.5596C17.4213 3.27917 17.089 3.10071 16.7273 3.0625H7.27329Z" fill="#333333"/>
</svg>
