<svg width="24" height="24" viewBox="0 0 24 24" fill="none" xmlns="http://www.w3.org/2000/svg">
<path fill-rule="evenodd" clip-rule="evenodd" d="M11.32 6.1748H5C3.895 6.1748 3 7.1238 3 8.2928V18.8808C3 20.0508 3.895 20.9988 5 20.9988H16C17.105 20.9988 18 20.0508 18 18.8808V11.1308L14.086 15.2748C13.7442 15.6403 13.2991 15.8929 12.81 15.9988L10.129 16.5668C8.379 16.9368 6.837 15.3038 7.187 13.4518L7.723 10.6128C7.82 10.1008 8.058 9.6298 8.407 9.2608L11.32 6.1748Z" fill="#F58735"/>
<path fill-rule="evenodd" clip-rule="evenodd" d="M19.8459 4.31704C19.7448 4.06107 19.5966 3.82634 19.4089 3.62504C19.2244 3.42817 19.0019 3.27068 18.7549 3.16204C18.5116 3.05518 18.2487 3 17.9829 3C17.7172 3 17.4543 3.05518 17.2109 3.16204C16.9639 3.27068 16.7415 3.42817 16.5569 3.62504L16.0109 4.20304L18.8629 7.22304L19.4089 6.64404C19.5986 6.44427 19.7471 6.20914 19.8459 5.95204C20.0519 5.42651 20.0519 4.84257 19.8459 4.31704ZM17.4499 8.72004L14.5969 5.69904L9.81994 10.759C9.74946 10.8341 9.70193 10.9278 9.68294 11.029L9.14694 13.869C9.07694 14.239 9.38594 14.565 9.73494 14.491L12.4169 13.924C12.5145 13.9023 12.6034 13.8518 12.6719 13.779L17.4499 8.72004Z" fill="#F58735"/>
</svg>
