<svg width="25" height="24" viewBox="0 0 25 24" fill="none" xmlns="http://www.w3.org/2000/svg">
<path d="M9.6001 2.25C9.6001 2.05109 9.67912 1.86032 9.81977 1.71967C9.96042 1.57902 10.1512 1.5 10.3501 1.5H14.8501C15.049 1.5 15.2398 1.57902 15.3804 1.71967C15.5211 1.86032 15.6001 2.05109 15.6001 2.25C15.6001 2.44891 15.5211 2.63968 15.3804 2.78033C15.2398 2.92098 15.049 3 14.8501 3H10.3501C10.1512 3 9.96042 2.92098 9.81977 2.78033C9.67912 2.63968 9.6001 2.44891 9.6001 2.25ZM23.8501 10.5C23.8501 10.6989 23.7711 10.8897 23.6304 11.0303C23.4898 11.171 23.299 11.25 23.1001 11.25H22.3501V18.75C22.3501 19.1478 22.1921 19.5294 21.9108 19.8107C21.6295 20.092 21.2479 20.25 20.8501 20.25H18.6001C18.2023 20.25 17.8207 20.092 17.5394 19.8107C17.2581 19.5294 17.1001 19.1478 17.1001 18.75V18H8.1001V18.75C8.1001 19.1478 7.94206 19.5294 7.66076 19.8107C7.37945 20.092 6.99792 20.25 6.6001 20.25H4.3501C3.95227 20.25 3.57074 20.092 3.28944 19.8107C3.00813 19.5294 2.8501 19.1478 2.8501 18.75V11.25H2.1001C1.90119 11.25 1.71042 11.171 1.56977 11.0303C1.42912 10.8897 1.3501 10.6989 1.3501 10.5C1.3501 10.3011 1.42912 10.1103 1.56977 9.96967C1.71042 9.82902 1.90119 9.75 2.1001 9.75H3.1651L5.73291 5.25563C5.86411 5.02609 6.05366 4.8353 6.28234 4.70261C6.51102 4.56991 6.77071 4.50001 7.0351 4.5H18.1651C18.4295 4.50001 18.6892 4.56991 18.9179 4.70261C19.1465 4.8353 19.3361 5.02609 19.4673 5.25563L22.0351 9.75H23.1001C23.299 9.75 23.4898 9.82902 23.6304 9.96967C23.7711 10.1103 23.8501 10.3011 23.8501 10.5ZM8.8501 13.5C8.8501 13.3011 8.77108 13.1103 8.63043 12.9697C8.48978 12.829 8.29901 12.75 8.1001 12.75H5.8501C5.65119 12.75 5.46042 12.829 5.31977 12.9697C5.17912 13.1103 5.1001 13.3011 5.1001 13.5C5.1001 13.6989 5.17912 13.8897 5.31977 14.0303C5.46042 14.171 5.65119 14.25 5.8501 14.25H8.1001C8.29901 14.25 8.48978 14.171 8.63043 14.0303C8.77108 13.8897 8.8501 13.6989 8.8501 13.5ZM20.1001 13.5C20.1001 13.3011 20.0211 13.1103 19.8804 12.9697C19.7398 12.829 19.549 12.75 19.3501 12.75H17.1001C16.9012 12.75 16.7104 12.829 16.5698 12.9697C16.4291 13.1103 16.3501 13.3011 16.3501 13.5C16.3501 13.6989 16.4291 13.8897 16.5698 14.0303C16.7104 14.171 16.9012 14.25 17.1001 14.25H19.3501C19.549 14.25 19.7398 14.171 19.8804 14.0303C20.0211 13.8897 20.1001 13.6989 20.1001 13.5ZM20.3073 9.75L18.1651 6H7.0351L4.89291 9.75H20.3073Z" fill="#8280FF"/>
</svg>
