<svg width="35" height="24" viewBox="0 0 35 24" fill="none" xmlns="http://www.w3.org/2000/svg">
<path opacity="0.587821" fill-rule="evenodd" clip-rule="evenodd" d="M7.62061 5.33333C7.62061 8.27885 10.1186 10.6667 13.2001 10.6667C16.2816 10.6667 18.7796 8.27885 18.7796 5.33333C18.7796 2.38781 16.2816 0 13.2001 0C10.1186 0 7.62061 2.38781 7.62061 5.33333ZM21.5693 10.6667C21.5693 12.8758 23.4428 14.6667 25.7539 14.6667C28.065 14.6667 29.9385 12.8758 29.9385 10.6667C29.9385 8.45753 28.065 6.66667 25.7539 6.66667C23.4428 6.66667 21.5693 8.45753 21.5693 10.6667Z" fill="#FEC53D"/>
<path fill-rule="evenodd" clip-rule="evenodd" d="M13.1768 13.3335C6.59106 13.3335 1.18781 16.5689 0.647149 22.9324C0.617699 23.2791 1.31119 24.0002 1.66101 24.0002H24.7032C25.751 24.0002 25.7673 23.1941 25.751 22.9335C25.3423 16.3911 19.8553 13.3335 13.1768 13.3335ZM33.3643 24.0002H27.9858C27.9858 20.9989 26.9484 18.2293 25.1977 16.001C29.9493 16.0507 33.8291 18.347 34.1211 23.2002C34.1328 23.3956 34.1211 24.0002 33.3643 24.0002Z" fill="#FEC53D"/>
</svg>
