<svg width="25" height="24" viewBox="0 0 25 24" fill="none" xmlns="http://www.w3.org/2000/svg">
<path fill-rule="evenodd" clip-rule="evenodd" d="M8.10012 4.75C8.10012 4.5315 10.3581 3 12.6001 3C14.8421 3 17.1001 4.5315 17.1001 4.75C17.1001 5.53 17.0171 5.992 16.9471 6.2435C16.9006 6.4085 16.7461 6.5 16.5746 6.5H8.62562C8.45412 6.5 8.29962 6.4085 8.25312 6.2435C8.18312 5.992 8.10012 5.53 8.10012 4.75ZM11.8501 4.5C11.7175 4.5 11.5903 4.55268 11.4966 4.64645C11.4028 4.74021 11.3501 4.86739 11.3501 5C11.3501 5.13261 11.4028 5.25979 11.4966 5.35355C11.5903 5.44732 11.7175 5.5 11.8501 5.5H13.3501C13.4827 5.5 13.6099 5.44732 13.7037 5.35355C13.7974 5.25979 13.8501 5.13261 13.8501 5C13.8501 4.86739 13.7974 4.74021 13.7037 4.64645C13.6099 4.55268 13.4827 4.5 13.3501 4.5H11.8501ZM8.61912 9.609C6.95412 9.094 7.37412 8.174 8.00912 7.5H17.3301C17.8381 8.149 18.1106 9.0245 16.5751 9.5485C16.5918 9.69683 16.6001 9.84733 16.6001 10C16.5999 10.5416 16.4897 11.0776 16.2762 11.5753C16.0626 12.0731 15.7502 12.5223 15.3579 12.8958C14.9656 13.2692 14.5015 13.559 13.9938 13.7478C13.4861 13.9365 12.9454 14.0201 12.4044 13.9936C11.8634 13.9671 11.3334 13.831 10.8466 13.5936C10.3598 13.3561 9.92628 13.0223 9.57233 12.6123C9.21839 12.2023 8.95139 11.7247 8.78754 11.2085C8.62369 10.6922 8.56639 10.1481 8.61912 9.609ZM12.4641 10C13.7851 10 14.8091 9.93 15.5941 9.808C15.5981 9.87133 15.6001 9.93533 15.6001 10C15.5998 10.4004 15.5193 10.7966 15.3634 11.1654C15.2075 11.5342 14.9794 11.868 14.6924 12.1473C14.4055 12.4265 14.0656 12.6455 13.6927 12.7913C13.3199 12.9371 12.9216 13.0068 12.5213 12.9963C12.1211 12.9858 11.727 12.8953 11.3623 12.7301C10.9976 12.5649 10.6697 12.3284 10.3978 12.0345C10.1259 11.7405 9.91565 11.3952 9.77934 11.0187C9.64303 10.6423 9.58345 10.2423 9.60412 9.8425C10.3356 9.9435 11.2731 10 12.4641 10ZM16.8086 17.3C16.3564 16.5943 15.7339 16.0138 14.9985 15.6119C14.263 15.2099 13.4382 14.9995 12.6001 15C11.7616 14.9994 10.9365 15.2098 10.2008 15.6119C9.46502 16.0141 8.84233 16.5949 8.39012 17.301C8.22191 17.0428 7.96425 16.8558 7.66662 16.776L6.70062 16.5175C6.38043 16.4317 6.03927 16.4765 5.75216 16.6422C5.46504 16.8079 5.2555 17.0808 5.16962 17.401L4.78162 18.85C4.73912 19.0086 4.72828 19.174 4.74971 19.3367C4.77114 19.4995 4.82442 19.6564 4.90651 19.7986C4.98859 19.9408 5.09788 20.0654 5.22813 20.1653C5.35838 20.2652 5.50704 20.3385 5.66562 20.381L6.63112 20.64C6.79354 20.6835 6.96308 20.6938 7.12958 20.6703C7.29608 20.6467 7.45612 20.5898 7.60012 20.503C7.60051 20.6356 7.65357 20.7626 7.74762 20.8561C7.84167 20.9496 7.96901 21.0019 8.10162 21.0015C8.23422 21.0011 8.36124 20.948 8.45473 20.854C8.54822 20.7599 8.60051 20.6326 8.60012 20.5V20C8.60012 19.8093 8.61312 19.6222 8.63912 19.4385L11.2411 20.136C11.3619 20.3945 11.5539 20.6132 11.7946 20.7665C12.0353 20.9197 12.3148 21.0011 12.6001 21.0011C12.8855 21.0011 13.1649 20.9197 13.4056 20.7665C13.6463 20.6132 13.8383 20.3945 13.9591 20.136L16.5611 19.4385C16.5868 19.6222 16.5998 19.8093 16.6001 20V20.5C16.5995 20.6326 16.6515 20.76 16.7448 20.8543C16.8381 20.9485 16.965 21.0018 17.0976 21.0025C17.2302 21.0032 17.3577 20.9511 17.4519 20.8578C17.5461 20.7645 17.5995 20.6376 17.6001 20.505C17.8801 20.673 18.2261 20.7315 18.5666 20.64L19.5326 20.3815C19.6912 20.339 19.8399 20.2657 19.9701 20.1658C20.1003 20.0659 20.2096 19.9413 20.2917 19.7991C20.3738 19.6569 20.4271 19.5 20.4485 19.3372C20.47 19.1745 20.4591 19.0091 20.4166 18.8505L20.0281 17.4015C19.9422 17.0813 19.7327 16.8084 19.4456 16.6427C19.1585 16.477 18.8173 16.4322 18.4971 16.518L17.5311 16.7765C17.2342 16.8561 16.9769 17.0428 16.8086 17.3ZM8.90162 18.473C9.17187 17.8199 9.61013 17.25 10.1719 16.8211C10.7337 16.3922 11.3989 16.1196 12.1001 16.031V18.0855C11.8759 18.1647 11.6737 18.2961 11.5103 18.4689C11.3469 18.6416 11.2268 18.8507 11.1601 19.079L8.90162 18.473ZM16.2986 18.473C16.0284 17.8199 15.5901 17.25 15.0283 16.8211C14.4666 16.3922 13.8013 16.1196 13.1001 16.031V18.0855C13.5521 18.2455 13.9051 18.6155 14.0401 19.079L16.2986 18.473ZM12.6001 20C12.7327 20 12.8599 19.9473 12.9537 19.8536C13.0474 19.7598 13.1001 19.6326 13.1001 19.5C13.1001 19.3674 13.0474 19.2402 12.9537 19.1464C12.8599 19.0527 12.7327 19 12.6001 19C12.4675 19 12.3403 19.0527 12.2466 19.1464C12.1528 19.2402 12.1001 19.3674 12.1001 19.5C12.1001 19.6326 12.1528 19.7598 12.2466 19.8536C12.3403 19.9473 12.4675 20 12.6001 20Z" fill="#FF9871"/>
</svg>
