<svg width="24" height="24" viewBox="0 0 24 24" fill="none" xmlns="http://www.w3.org/2000/svg">
<path d="M12 12C11.436 12 10.9617 11.8077 10.577 11.423C10.1923 11.0383 10 10.564 10 10C10 9.436 10.1923 8.96167 10.577 8.577C10.9617 8.19233 11.436 8 12 8C12.564 8 13.0383 8.19233 13.423 8.577C13.8077 8.96167 14 9.436 14 10C14 10.564 13.8077 11.0383 13.423 11.423C13.0383 11.8077 12.564 12 12 12ZM12 19.962L8.037 21.146C7.78033 21.2373 7.54333 21.2007 7.326 21.036C7.10867 20.87 7 20.6493 7 20.374V14.87C6.36667 14.2473 5.875 13.5167 5.525 12.678C5.175 11.8393 5 10.9467 5 10C5 8.046 5.678 6.39067 7.034 5.034C8.38933 3.678 10.0437 3 11.997 3C13.9503 3 15.606 3.678 16.964 5.034C18.322 6.39 19.0007 8.04533 19 10C19 10.9473 18.825 11.8403 18.475 12.679C18.125 13.5177 17.6333 14.248 17 14.87V20.374C17 20.6493 16.8913 20.8693 16.674 21.034C16.4567 21.1987 16.22 21.2357 15.964 21.145L12 19.962ZM12 16C13.6667 16 15.0833 15.4167 16.25 14.25C17.4167 13.0833 18 11.6667 18 10C18 8.33333 17.4167 6.91667 16.25 5.75C15.0833 4.58333 13.6667 4 12 4C10.3333 4 8.91667 4.58333 7.75 5.75C6.58333 6.91667 6 8.33333 6 10C6 11.6667 6.58333 13.0833 7.75 14.25C8.91667 15.4167 10.3333 16 12 16Z" fill="#333333"/>
</svg>
