<svg width="15" height="14" viewBox="0 0 15 14" fill="none" xmlns="http://www.w3.org/2000/svg">
<path d="M6.5 8H1.5C1.21667 8 0.979337 7.904 0.788004 7.712C0.59667 7.52 0.50067 7.28267 0.500003 7C0.499337 6.71734 0.595337 6.48 0.788004 6.288C0.98067 6.096 1.218 6 1.5 6H6.5V1C6.5 0.71667 6.596 0.479337 6.788 0.288004C6.98 0.0966702 7.21734 0.000670115 7.5 3.44827e-06C7.78267 -0.000663218 8.02034 0.0953369 8.213 0.288004C8.40567 0.48067 8.50134 0.718003 8.5 1V6H13.5C13.7833 6 14.021 6.096 14.213 6.288C14.405 6.48 14.5007 6.71734 14.5 7C14.4993 7.28267 14.4033 7.52034 14.212 7.713C14.0207 7.90567 13.7833 8.00134 13.5 8H8.5V13C8.5 13.2833 8.404 13.521 8.212 13.713C8.02 13.905 7.78267 14.0007 7.5 14C7.21734 13.9993 6.98 13.9033 6.788 13.712C6.596 13.5207 6.5 13.2833 6.5 13V8Z" fill="#F58735"/>
</svg>
