<svg width="24" height="24" viewBox="0 0 24 24" fill="none" xmlns="http://www.w3.org/2000/svg">
<path d="M9 13C7.085 13 5.397 13.965 4.208 15.245C3.026 16.518 2.25 18.193 2.25 19.75C2.25 20.164 2.586 20.5 3 20.5H15C15.1989 20.5 15.3897 20.421 15.5303 20.2803C15.671 20.1397 15.75 19.9489 15.75 19.75C15.75 18.192 14.975 16.518 13.792 15.245C12.602 13.965 10.915 13 9 13ZM17.204 13.301C17.0125 13.2469 16.8074 13.2711 16.6337 13.3682C16.4601 13.4654 16.3321 13.6275 16.278 13.819C16.2239 14.0105 16.2481 14.2156 16.3452 14.3893C16.4424 14.5629 16.6045 14.6909 16.796 14.745C17.729 15.009 18.597 15.764 19.246 16.759C19.893 17.754 20.25 18.881 20.25 19.749C20.25 19.9479 20.329 20.1387 20.4697 20.2793C20.6103 20.42 20.8011 20.499 21 20.499C21.1989 20.499 21.3897 20.42 21.5303 20.2793C21.671 20.1387 21.75 19.9479 21.75 19.749C21.75 18.529 21.272 17.122 20.502 15.941C19.733 14.76 18.602 13.697 17.204 13.301ZM9 3.5C8.50754 3.5 8.01991 3.597 7.56494 3.78545C7.10997 3.97391 6.69657 4.25013 6.34835 4.59835C6.00013 4.94657 5.72391 5.35997 5.53545 5.81494C5.347 6.26991 5.25 6.75754 5.25 7.25C5.25 7.74246 5.347 8.23009 5.53545 8.68506C5.72391 9.14003 6.00013 9.55343 6.34835 9.90165C6.69657 10.2499 7.10997 10.5261 7.56494 10.7145C8.01991 10.903 8.50754 11 9 11C9.99456 11 10.9484 10.6049 11.6517 9.90165C12.3549 9.19839 12.75 8.24456 12.75 7.25C12.75 6.25544 12.3549 5.30161 11.6517 4.59835C10.9484 3.89509 9.99456 3.5 9 3.5ZM15 3.5C14.8011 3.5 14.6103 3.57902 14.4697 3.71967C14.329 3.86032 14.25 4.05109 14.25 4.25V10.25C14.25 10.664 14.586 11 15 11C15.4925 11 15.9801 10.903 16.4351 10.7145C16.89 10.5261 17.3034 10.2499 17.6517 9.90165C17.9999 9.55343 18.2761 9.14003 18.4645 8.68506C18.653 8.23009 18.75 7.74246 18.75 7.25C18.75 6.75754 18.653 6.26991 18.4645 5.81494C18.2761 5.35997 17.9999 4.94657 17.6517 4.59835C17.3034 4.25013 16.89 3.97391 16.4351 3.78545C15.9801 3.597 15.4925 3.5 15 3.5Z" fill="#8280FF"/>
</svg>
