<svg width="14" height="14" viewBox="0 0 14 14" fill="none" xmlns="http://www.w3.org/2000/svg">
<path d="M13 13.0001L10.1047 10.1048M10.1047 10.1048C10.5999 9.60955 10.9928 9.02159 11.2608 8.3745C11.5289 7.72742 11.6668 7.03387 11.6668 6.33347C11.6668 5.63307 11.5289 4.93953 11.2608 4.29244C10.9928 3.64535 10.5999 3.0574 10.1047 2.56214C9.60942 2.06688 9.02147 1.67402 8.37438 1.40599C7.72729 1.13795 7.03375 1 6.33335 1C5.63295 1 4.9394 1.13795 4.29232 1.40599C3.64523 1.67402 3.05727 2.06688 2.56202 2.56214C1.5618 3.56236 0.999878 4.91895 0.999878 6.33347C0.999878 7.748 1.5618 9.10458 2.56202 10.1048C3.56224 11.105 4.91882 11.6669 6.33335 11.6669C7.74787 11.6669 9.10446 11.105 10.1047 10.1048Z" stroke="#606060" stroke-width="1.66667" stroke-linecap="round" stroke-linejoin="round"/>
</svg>
