<svg width="12" height="14" viewBox="0 0 12 14" fill="none" xmlns="http://www.w3.org/2000/svg">
<path d="M7.22497 3.27478C7.34215 3.39182 7.50101 3.45756 7.66663 3.45756C7.83226 3.45756 7.99111 3.39182 8.1083 3.27478L8.7083 2.67478V11.1664C8.7083 11.3322 8.77415 11.4912 8.89136 11.6084C9.00857 11.7256 9.16754 11.7914 9.3333 11.7914C9.49906 11.7914 9.65803 11.7256 9.77524 11.6084C9.89245 11.4912 9.9583 11.3322 9.9583 11.1664V2.67478L10.5583 3.27478C10.6155 3.33618 10.6845 3.38543 10.7612 3.41959C10.8378 3.45375 10.9206 3.47212 11.0045 3.4736C11.0884 3.47508 11.1718 3.45965 11.2496 3.42821C11.3275 3.39678 11.3981 3.34999 11.4575 3.29064C11.5168 3.23129 11.5636 3.1606 11.5951 3.08277C11.6265 3.00495 11.6419 2.92159 11.6405 2.83767C11.639 2.75375 11.6206 2.67099 11.5864 2.59433C11.5523 2.51766 11.503 2.44866 11.4416 2.39144L9.77497 0.724775C9.65778 0.607733 9.49892 0.541992 9.3333 0.541992C9.16767 0.541992 9.00882 0.607733 8.89163 0.724775L7.22497 2.39144C7.10792 2.50863 7.04218 2.66748 7.04218 2.83311C7.04218 2.99873 7.10792 3.15759 7.22497 3.27478ZM3.29163 11.3248L3.89163 10.7248C3.94885 10.6634 4.01785 10.6141 4.09452 10.58C4.17118 10.5458 4.25394 10.5274 4.33786 10.5259C4.42178 10.5245 4.50514 10.5399 4.58296 10.5713C4.66079 10.6028 4.73148 10.6496 4.79083 10.7089C4.85018 10.7683 4.89697 10.839 4.9284 10.9168C4.95984 10.9946 4.97527 11.078 4.97379 11.1619C4.97231 11.2458 4.95394 11.3286 4.91978 11.4052C4.88562 11.4819 4.83637 11.5509 4.77496 11.6081L3.1083 13.2748C2.99111 13.3918 2.83226 13.4576 2.66663 13.4576C2.50101 13.4576 2.34215 13.3918 2.22496 13.2748L0.558298 11.6081C0.496893 11.5509 0.447641 11.4819 0.413481 11.4052C0.379321 11.3286 0.360953 11.2458 0.359472 11.1619C0.357992 11.078 0.373429 10.9946 0.404863 10.9168C0.436297 10.839 0.483084 10.7683 0.542433 10.7089C0.601782 10.6496 0.672477 10.6028 0.7503 10.5713C0.828124 10.5399 0.911481 10.5245 0.995401 10.5259C1.07932 10.5274 1.16208 10.5458 1.23875 10.58C1.31541 10.6141 1.38441 10.6634 1.44163 10.7248L2.04163 11.3248V2.83311C2.04163 2.66735 2.10748 2.50838 2.22469 2.39117C2.3419 2.27396 2.50087 2.20811 2.66663 2.20811C2.83239 2.20811 2.99136 2.27396 3.10857 2.39117C3.22578 2.50838 3.29163 2.66735 3.29163 2.83311V11.3248Z" fill="#5C5C5C"/>
</svg>
