<svg width="34" height="32" viewBox="0 0 34 32" fill="none" xmlns="http://www.w3.org/2000/svg">
<path d="M25.121 12.621C26 11.742 26 10.329 26 7.5C26 4.671 26 3.258 25.121 2.379M25.121 12.621C24.242 13.5 22.829 13.5 20 13.5H14C11.171 13.5 9.758 13.5 8.879 12.621M25.121 2.379C24.242 1.5 22.829 1.5 20 1.5H14C11.171 1.5 9.758 1.5 8.879 2.379M8.879 2.379C8 3.258 8 4.671 8 7.5C8 10.329 8 11.742 8.879 12.621M18.5 7.5C18.5 7.89782 18.342 8.27936 18.0607 8.56066C17.7794 8.84196 17.3978 9 17 9C16.6022 9 16.2206 8.84196 15.9393 8.56066C15.658 8.27936 15.5 7.89782 15.5 7.5C15.5 7.10218 15.658 6.72064 15.9393 6.43934C16.2206 6.15804 16.6022 6 17 6C17.3978 6 17.7794 6.15804 18.0607 6.43934C18.342 6.72064 18.5 7.10218 18.5 7.5Z" stroke="#FEC53D" stroke-width="2.25"/>
<path d="M26 6C24.8065 6 23.6619 5.52589 22.818 4.68198C21.9741 3.83807 21.5 2.69347 21.5 1.5M26 9C24.8065 9 23.6619 9.47411 22.818 10.318C21.9741 11.1619 21.5 12.3065 21.5 13.5M8 6C9.19347 6 10.3381 5.52589 11.182 4.68198C12.0259 3.83807 12.5 2.69347 12.5 1.5M8 9C9.19347 9 10.3381 9.47411 11.182 10.318C12.0259 11.1619 12.5 12.3065 12.5 13.5M6.5 27.582H9.89C11.405 27.582 12.9395 27.741 14.414 28.044C17.0467 28.5832 19.755 28.6431 22.409 28.221C23.711 28.011 24.989 27.6885 26.147 27.1305C27.191 26.625 28.4705 25.9155 29.33 25.119C30.188 24.324 31.082 23.0235 31.715 22.0065C32.261 21.1335 31.997 20.064 31.136 19.4145C30.6519 19.0632 30.0691 18.8741 29.471 18.8741C28.8729 18.8741 28.2901 19.0632 27.806 19.4145L25.0955 21.462C24.0455 22.257 22.898 22.9875 21.5315 23.205C21.3665 23.231 21.194 23.2545 21.014 23.2755M21.014 23.2755L20.849 23.2935M21.014 23.2755C21.254 23.2105 21.4741 23.0867 21.6545 22.9155C21.8809 22.7202 22.0658 22.4814 22.1983 22.2134C22.3307 21.9453 22.4081 21.6534 22.4257 21.355C22.4433 21.0565 22.4009 20.7575 22.3009 20.4757C22.2009 20.1939 22.0453 19.9351 21.8435 19.7145C21.648 19.4975 21.4204 19.3118 21.1685 19.164C16.973 16.6605 10.4435 18.567 6.5 21.3645M21.014 23.2755C20.9598 23.2876 20.9045 23.2936 20.849 23.2935M20.849 23.2935C19.9444 23.3842 19.033 23.3862 18.128 23.2995" stroke="#FEC53D" stroke-width="2.25" stroke-linecap="round"/>
<path d="M6.5 20.25C6.5 19.0074 5.49264 18 4.25 18C3.00736 18 2 19.0074 2 20.25V27.75C2 28.9926 3.00736 30 4.25 30C5.49264 30 6.5 28.9926 6.5 27.75V20.25Z" stroke="#FEC53D" stroke-width="2.25"/>
</svg>
