<svg width="24" height="24" viewBox="0 0 24 24" fill="none" xmlns="http://www.w3.org/2000/svg">
<path d="M6.99999 20C6.16665 20 5.45832 19.7083 4.87499 19.125C4.29165 18.5417 3.99999 17.8333 3.99999 17H2.72499C2.44165 17 2.20399 16.904 2.01199 16.712C1.81999 16.52 1.72432 16.2827 1.72499 16C1.72565 15.7173 1.82165 15.48 2.01299 15.288C2.20432 15.096 2.44165 15 2.72499 15H4.77499C5.05832 14.6833 5.39165 14.4377 5.77499 14.263C6.15832 14.0883 6.56665 14.0007 6.99999 14C7.43332 13.9993 7.84165 14.087 8.22499 14.263C8.60832 14.439 8.94165 14.6847 9.22499 15H13.4L15.5 6H7.74999C7.46665 6 7.22932 5.904 7.03799 5.712C6.84665 5.52 6.75065 5.28267 6.74999 5C6.74932 4.71733 6.84532 4.48 7.03799 4.288C7.23065 4.096 7.46799 4 7.74999 4H16.75C17.0833 4 17.35 4.125 17.55 4.375C17.75 4.625 17.8083 4.90833 17.725 5.225L17.075 8H19C19.3167 8 19.6167 8.071 19.9 8.213C20.1833 8.355 20.4167 8.55067 20.6 8.8L22.475 11.275C22.6583 11.5083 22.775 11.7627 22.825 12.038C22.875 12.3133 22.875 12.5923 22.825 12.875L22.15 16.2C22.1 16.4333 21.9833 16.625 21.8 16.775C21.6167 16.925 21.4083 17 21.175 17H20C20 17.8333 19.7083 18.5417 19.125 19.125C18.5417 19.7083 17.8333 20 17 20C16.1667 20 15.4583 19.7083 14.875 19.125C14.2917 18.5417 14 17.8333 14 17H9.99999C9.99999 17.8333 9.70832 18.5417 9.12499 19.125C8.54165 19.7083 7.83332 20 6.99999 20ZM15.925 13H20.75L20.85 12.475L19 10H16.625L15.925 13ZM15.5 6L13.4 15L13.45 14.825L15.5 6ZM3.49999 10H1.94999C1.74999 10 1.60432 9.91267 1.51299 9.738C1.42165 9.56333 1.43399 9.39233 1.54999 9.225L4.04999 5.65C4.13332 5.55 4.22932 5.51667 4.33799 5.55C4.44665 5.58333 4.50065 5.66667 4.49999 5.8V8H6.04999C6.24999 8 6.39565 8.08767 6.48699 8.263C6.57832 8.43833 6.56599 8.609 6.44999 8.775L3.94999 12.35C3.86665 12.45 3.77065 12.4833 3.66199 12.45C3.55332 12.4167 3.49932 12.3333 3.49999 12.2V10ZM6.99999 18C7.28332 18 7.52099 17.904 7.71299 17.712C7.90499 17.52 8.00065 17.2827 7.99999 17C7.99932 16.7173 7.90332 16.48 7.71199 16.288C7.52065 16.096 7.28332 16 6.99999 16C6.71665 16 6.47932 16.096 6.28799 16.288C6.09665 16.48 6.00065 16.7173 5.99999 17C5.99932 17.2827 6.09532 17.5203 6.28799 17.713C6.48065 17.9057 6.71799 18.0013 6.99999 18ZM17 18C17.2833 18 17.521 17.904 17.713 17.712C17.905 17.52 18.0007 17.2827 18 17C17.9993 16.7173 17.9033 16.48 17.712 16.288C17.5207 16.096 17.2833 16 17 16C16.7167 16 16.4793 16.096 16.288 16.288C16.0967 16.48 16.0007 16.7173 16 17C15.9993 17.2827 16.0953 17.5203 16.288 17.713C16.4807 17.9057 16.718 18.0013 17 18Z" fill="#FEC53D"/>
</svg>
