<svg width="22" height="21" viewBox="0 0 22 21" fill="none" xmlns="http://www.w3.org/2000/svg">
<path d="M2.1681 11.5991C1.7773 10.9184 1.7773 10.0817 2.16809 9.40106C4.22434 5.8196 7.51331 3.5 11.2198 3.5C14.9263 3.5 18.2153 5.81957 20.2715 9.40099C20.6623 10.0817 20.6623 10.9183 20.2715 11.599C18.2153 15.1804 14.9263 17.5 11.2198 17.5C7.5133 17.5 4.22435 15.1805 2.1681 11.5991Z" stroke="#A6A6A6" stroke-width="2"/>
<path d="M13.8447 10.5C13.8447 11.9497 12.6695 13.125 11.2197 13.125C9.76998 13.125 8.59473 11.9497 8.59473 10.5C8.59473 9.05025 9.76998 7.875 11.2197 7.875C12.6695 7.875 13.8447 9.05025 13.8447 10.5Z" stroke="#A6A6A6" stroke-width="2"/>
</svg>
